<svg width="24" height="24" viewBox="0 0 24 24" fill="none" xmlns="http://www.w3.org/2000/svg">
<path d="M22 12C22 15.0342 19.5342 17.5 16.5 17.5C19.5358 17.5 22 15.0358 22 12ZM22 12C22 8.96579 19.5342 6.5 16.5 6.5C19.5358 6.5 22 8.96421 22 12Z" fill="#3C8799" stroke="#3C8799" stroke-width="1.5"/>
<path d="M2 12C2 15.0358 4.46421 17.5 7.5 17.5C4.46579 17.5 2 15.0342 2 12ZM2 12C2 8.96421 4.46421 6.5 7.5 6.5C4.46579 6.5 2 8.96579 2 12Z" fill="#3C8799" stroke="#3C8799" stroke-width="1.5"/>
<path d="M16 12.75H8C7.59 12.75 7.25 12.41 7.25 12C7.25 11.59 7.59 11.25 8 11.25H16C16.41 11.25 16.75 11.59 16.75 12C16.75 12.41 16.41 12.75 16 12.75Z" fill="#3C8799"/>
</svg>
