<svg width="24" height="16" viewBox="0 0 24 16" fill="none" xmlns="http://www.w3.org/2000/svg">
<g clip-path="url(#clip0_23692_15146)">
<path d="M21.8481 0.639931L22.0919 0.640251C22.1588 0.640571 22.2257 0.641531 22.2929 0.643131C22.4148 0.64633 22.5581 0.65305 22.6961 0.678009C22.8237 0.701048 22.9319 0.736567 23.0365 0.789685C23.2481 0.896969 23.4199 1.06892 23.5271 1.28054C23.5802 1.38486 23.6154 1.49302 23.6384 1.62101C23.6631 1.75764 23.6701 1.90132 23.673 2.02387C23.6749 2.09043 23.6759 2.15731 23.6762 2.22482C23.6768 2.30578 23.6768 2.38738 23.6768 2.46865V13.5312C23.6768 13.6125 23.6768 13.6938 23.6762 13.776C23.6759 13.8427 23.6748 13.9094 23.673 13.976C23.6698 14.0986 23.6631 14.2422 23.6384 14.3798C23.6185 14.4979 23.5809 14.6124 23.5271 14.7193C23.4192 14.9308 23.2473 15.1027 23.0359 15.2105C22.9288 15.2645 22.8143 15.3022 22.6961 15.3222C22.563 15.3435 22.4286 15.3551 22.2938 15.3568C22.2266 15.3584 22.1594 15.3593 22.0913 15.3593C22.0103 15.36 21.9287 15.36 21.8478 15.36H2.14939C2.06907 15.36 1.98876 15.36 1.90748 15.3593C1.84028 15.3593 1.77309 15.3584 1.70749 15.3568C1.57244 15.355 1.43769 15.3435 1.30431 15.3222C1.18569 15.3024 1.07078 15.2646 0.963521 15.2102C0.858376 15.1569 0.762445 15.0871 0.679373 15.0035C0.596043 14.9203 0.526482 14.8244 0.473301 14.7193C0.419188 14.6121 0.38154 14.4973 0.361626 14.3789C0.339867 14.2457 0.328207 14.111 0.326747 13.976C0.32515 13.9093 0.32419 13.8425 0.323867 13.7757L0.323547 13.5805V2.4197L0.323867 2.22482C0.324187 2.15795 0.325147 2.09107 0.326747 2.02387C0.329947 1.90196 0.336667 1.7586 0.361626 1.62037C0.381394 1.50198 0.41905 1.38729 0.473301 1.28022C0.580666 1.06883 0.752451 0.897049 0.963841 0.789685C1.07096 0.735635 1.18564 0.698092 1.30399 0.678329C1.43742 0.656583 1.5723 0.644924 1.70749 0.643451C1.77437 0.641851 1.84124 0.640891 1.9078 0.640571L2.15227 0.639931H21.8481Z" fill="white"/>
<path d="M21.8481 0.639933L22.0919 0.640253C22.1588 0.640573 22.2257 0.641533 22.2929 0.643133C22.4148 0.646333 22.5581 0.653052 22.696 0.678011C22.8237 0.70105 22.9319 0.736569 23.0365 0.789687C23.2481 0.896971 23.4199 1.06892 23.527 1.28055C23.5802 1.38486 23.6154 1.49302 23.6384 1.62101C23.663 1.75765 23.6701 1.90132 23.673 2.02388C23.6749 2.09043 23.6758 2.15731 23.6762 2.22483C23.6768 2.30578 23.6768 2.38738 23.6768 2.46866V13.5312C23.6768 13.6125 23.6768 13.6938 23.6762 13.776C23.6759 13.8427 23.6748 13.9094 23.673 13.976C23.6698 14.0986 23.663 14.2422 23.6384 14.3798C23.6184 14.4979 23.5809 14.6124 23.527 14.7193C23.4192 14.9308 23.2473 15.1027 23.0359 15.2105C22.9288 15.2645 22.8143 15.3022 22.696 15.3222C22.563 15.3435 22.4286 15.3551 22.2938 15.3568C22.2266 15.3584 22.1594 15.3593 22.0913 15.3593C22.0103 15.36 21.9287 15.36 21.8477 15.36H2.14937C2.06905 15.36 1.98874 15.36 1.90746 15.3593C1.84026 15.3593 1.77307 15.3584 1.70747 15.3568C1.57242 15.355 1.43767 15.3435 1.30429 15.3222C1.18567 15.3024 1.07076 15.2646 0.9635 15.2102C0.858355 15.1569 0.762424 15.0871 0.679352 15.0035C0.596022 14.9203 0.526462 14.8244 0.47328 14.7193C0.419167 14.6121 0.381519 14.4973 0.361605 14.3789C0.339846 14.2457 0.328187 14.111 0.326727 13.976C0.325129 13.9093 0.324169 13.8425 0.323847 13.7757L0.323527 13.5805V2.4197L0.323847 2.22483C0.324167 2.15795 0.325127 2.09107 0.326727 2.02388C0.329926 1.90196 0.336646 1.75861 0.361605 1.62037C0.381373 1.50198 0.419029 1.38729 0.47328 1.28023C0.580645 1.06884 0.752431 0.897051 0.96382 0.789687C1.07094 0.735637 1.18562 0.698095 1.30397 0.678331C1.4374 0.656585 1.57228 0.644926 1.70747 0.643453C1.77435 0.641853 1.84122 0.640893 1.90778 0.640573L2.15225 0.639933H21.8481ZM21.8481 0.319946H2.15225L1.90618 0.320266C1.83706 0.320586 1.76795 0.321546 1.69883 0.323466C1.54766 0.325477 1.39685 0.33874 1.24765 0.363144C1.0984 0.388787 0.95379 0.436452 0.818546 0.504579C0.547319 0.64328 0.326736 0.863975 0.188172 1.13527C0.11986 1.27044 0.072186 1.41508 0.0467382 1.56437C0.0220689 1.71355 0.00869807 1.86437 0.00673991 2.01556C0.00513997 2.08435 0.00418001 2.15347 0.00386003 2.22259L0.00354004 2.46866V13.5312L0.00386003 13.7776C0.00418001 13.8467 0.00513997 13.9159 0.00705989 13.9847C0.0112197 14.135 0.0201793 14.2867 0.0470582 14.4355C0.0739371 14.5869 0.118415 14.7273 0.188172 14.8646C0.326153 15.1364 0.547037 15.3573 0.818866 15.4953C0.95614 15.5654 1.09661 15.6095 1.24765 15.6367C1.39644 15.6633 1.54812 15.6723 1.69883 15.6764C1.76795 15.6783 1.83674 15.6793 1.90618 15.6793C1.9881 15.6799 2.07033 15.6799 2.15225 15.6799H21.8481C21.93 15.6799 22.0122 15.6799 22.0941 15.6793C22.1633 15.679 22.2324 15.678 22.3015 15.6764C22.4519 15.6723 22.6036 15.6633 22.7527 15.6367C22.9018 15.6111 23.0463 15.5634 23.1815 15.4953C23.4534 15.3575 23.6743 15.1365 23.8121 14.8646C23.8822 14.7273 23.9264 14.5869 23.9533 14.4355C23.9801 14.2867 23.9888 14.135 23.9929 13.9847C23.9949 13.9155 23.9958 13.8464 23.9961 13.7776C23.9968 13.6954 23.9968 13.6135 23.9968 13.5312V2.46866C23.9968 2.38642 23.9968 2.3045 23.9961 2.22227C23.9959 2.15325 23.9948 2.08423 23.9929 2.01524C23.9911 1.86406 23.9778 1.71324 23.9533 1.56405C23.9279 1.41477 23.8804 1.27013 23.8121 1.13495C23.6739 0.863346 23.4531 0.642547 23.1815 0.504259C23.0463 0.436136 22.9018 0.38847 22.7527 0.362824C22.6035 0.338447 22.4527 0.325184 22.3015 0.323146C22.2321 0.321226 22.1629 0.320586 22.0941 0.319946H21.8481Z" fill="black"/>
<path d="M7.15717 4.92839C7.3786 4.65992 7.52803 4.28682 7.48739 3.91499C7.16741 3.92811 6.78054 4.12874 6.55271 4.39625C6.34632 4.63368 6.16777 5.01383 6.21705 5.37829C6.57287 5.40581 6.93574 5.19686 7.15717 4.92839ZM8.07649 7.28797C8.06945 6.48385 8.73246 6.09698 8.76318 6.07778C8.38912 5.53381 7.80898 5.45829 7.60227 5.44997C7.10789 5.40101 6.63655 5.74116 6.38664 5.74116C6.13577 5.74116 5.74987 5.45765 5.339 5.46629C4.80015 5.47397 4.30321 5.77956 4.02578 6.26178C3.4674 7.2355 3.88402 8.67352 4.42928 9.461C4.69615 9.84659 5.01358 10.2798 5.4318 10.2642C5.83434 10.2485 5.98538 10.0037 6.47176 10.0037C6.95718 10.0031 7.09445 10.2635 7.51843 10.2562C7.95105 10.2469 8.2256 9.86259 8.49087 9.47508C8.79582 9.0287 8.92221 8.59512 8.92861 8.57336C8.91997 8.5676 8.08609 8.24953 8.07649 7.28797ZM13.227 4.92807C13.0657 4.77256 12.8577 4.6516 12.6088 4.56841C12.3621 4.48617 12.0658 4.44457 11.7282 4.44457C11.5119 4.44361 11.2958 4.45483 11.0808 4.47817C10.9016 4.49817 10.723 4.52325 10.5452 4.55337L10.493 4.56233V10.2155H11.0092V7.83387C11.1829 7.86363 11.382 7.87931 11.6015 7.87931C11.8936 7.87931 12.1672 7.84187 12.4149 7.76859C12.6532 7.70083 12.8751 7.58508 13.067 7.42845C13.2519 7.27392 13.4005 7.08069 13.5025 6.86239C13.6081 6.6384 13.6619 6.37505 13.6619 6.07874C13.6619 5.83363 13.6231 5.61316 13.5476 5.42341C13.4746 5.23869 13.3656 5.07031 13.227 4.92807ZM12.7528 7.08734C12.4878 7.30941 12.1128 7.42205 11.637 7.42205C11.5061 7.42205 11.3823 7.41629 11.2687 7.40573C11.1813 7.39782 11.0947 7.38327 11.0095 7.36221V4.95815C11.0776 4.94567 11.1621 4.93383 11.2613 4.92327C11.3871 4.90983 11.5384 4.90311 11.7119 4.90311C11.911 4.90113 12.1095 4.92687 12.3016 4.97959C12.4653 5.02461 12.6191 5.09994 12.755 5.20166C12.8788 5.29766 12.9761 5.42245 13.0436 5.57284C13.1118 5.72516 13.146 5.90691 13.146 6.11266C13.1457 6.53984 13.0132 6.86783 12.7528 7.08734ZM16.7468 9.68627C16.7411 9.52628 16.7388 9.36565 16.7388 9.20565V7.6342C16.7388 7.44797 16.72 7.25789 16.6832 7.0691C16.6477 6.88125 16.575 6.70239 16.4694 6.54304C16.3645 6.38561 16.2176 6.2557 16.0339 6.1565C15.8502 6.05762 15.6115 6.00771 15.3239 6.00771C15.114 6.00771 14.9088 6.0349 14.7153 6.08898C14.512 6.14746 14.3197 6.23891 14.146 6.35969L14.1041 6.38881L14.2785 6.79679L14.3415 6.75424C14.4792 6.66185 14.6297 6.59025 14.7882 6.54176C14.9484 6.49163 15.1153 6.46596 15.2832 6.46561C15.4983 6.46561 15.6701 6.50465 15.7926 6.58144C15.9171 6.6592 16.0109 6.75552 16.0714 6.86815C16.1344 6.98431 16.1757 7.10782 16.1939 7.23614C16.2134 7.36957 16.2227 7.48892 16.2227 7.59132V7.63676C15.4576 7.63324 14.8602 7.76059 14.4634 8.01626C14.0471 8.28441 13.8359 8.66616 13.8359 9.15062C13.8359 9.29013 13.8609 9.4306 13.9102 9.56948C13.9601 9.70995 14.0359 9.83571 14.1351 9.94322C14.235 10.052 14.3639 10.1407 14.5181 10.2069C14.6717 10.2738 14.8525 10.3074 15.0544 10.3074C15.3403 10.3121 15.6216 10.2352 15.8653 10.0856C15.9715 10.02 16.0659 9.94546 16.1466 9.86515C16.1809 9.83061 16.2137 9.79452 16.2448 9.75699H16.2646L16.312 10.2159H16.8096L16.7958 10.1423C16.7685 9.99164 16.7521 9.83925 16.7468 9.68627ZM16.2227 8.88119C16.2227 8.93622 16.2096 9.01174 16.1846 9.1023C16.1512 9.20027 16.1045 9.2932 16.0458 9.37845C15.915 9.56985 15.7252 9.71315 15.5053 9.78643C15.3719 9.83031 15.232 9.85162 15.0916 9.84947C14.9989 9.84949 14.907 9.8338 14.8196 9.80307C14.7347 9.77355 14.6569 9.72694 14.5908 9.66611C14.5216 9.60065 14.4668 9.5214 14.4301 9.43348C14.3895 9.33973 14.369 9.22357 14.369 9.08854C14.369 8.86743 14.4285 8.68791 14.5453 8.55672C14.6711 8.41691 14.829 8.30983 15.0055 8.24473C15.2054 8.16958 15.4145 8.12189 15.6272 8.10298C15.8251 8.08389 16.0239 8.07524 16.2227 8.07706V8.88119ZM20.2497 6.09954L19.2866 8.71799C19.2264 8.87607 19.1704 9.03542 19.1192 9.19061C19.0943 9.26805 19.0706 9.34133 19.0472 9.41108H19.029C19.0049 9.33467 18.9804 9.2584 18.9554 9.18229C18.9055 9.0287 18.8517 8.87799 18.7967 8.73431L17.7666 6.09954H17.2159L18.6895 9.88754C18.7282 9.97874 18.734 10.0207 18.734 10.0376C18.734 10.0427 18.732 10.0738 18.6888 10.189C18.6084 10.3945 18.5034 10.5896 18.3762 10.7701C18.2581 10.9307 18.15 11.0613 18.0537 11.1576C17.9417 11.2696 17.8262 11.3614 17.7087 11.4308C17.5887 11.5016 17.4793 11.5588 17.3823 11.602L17.3267 11.627L17.5062 12.0631L17.5631 12.042C17.6098 12.0244 17.6975 11.9844 17.8306 11.9195C17.965 11.8532 18.1138 11.7483 18.2725 11.6062C18.4132 11.4823 18.5381 11.3417 18.6444 11.1873C18.7532 11.0312 18.862 10.8478 18.9688 10.6443C19.0744 10.4411 19.18 10.2101 19.2831 9.95698C19.3861 9.70259 19.4968 9.41812 19.611 9.11254L20.8011 6.09954H20.2497Z" fill="black"/>
</g>
<defs>
<clipPath id="clip0_23692_15146">
<rect width="24" height="15.36" fill="white" transform="translate(0 0.319946)"/>
</clipPath>
</defs>
</svg>
