<svg width="24" height="16" viewBox="0 0 24 16" fill="none" xmlns="http://www.w3.org/2000/svg">
<g clip-path="url(#clip0_23692_15139)">
<path d="M20.1299 8.91734L19.6184 6.52641L18.7595 8.91734H20.1299Z" fill="#393939"/>
<path fill-rule="evenodd" clip-rule="evenodd" d="M1.27563 0.307739H22.6473C23.3518 0.307739 23.923 0.892047 23.923 1.61315V14.3716C23.923 15.0926 23.3516 15.677 22.6473 15.677H1.27563C0.571138 15.677 0 15.0928 0 14.3716V1.61315C0 0.89217 0.571415 0.307739 1.27563 0.307739ZM12.3041 6.83103C12.3041 5.45063 13.5919 4.70349 15.033 4.70349C15.9559 4.70349 16.6104 4.98589 16.6104 4.98589L16.3193 6.33128C16.3193 6.33128 15.7179 6.02666 14.9807 6.02666C14.3273 6.02666 14.0124 6.31408 14.0124 6.57642C14.0124 6.87103 14.3778 7.06497 14.8168 7.29802C15.4778 7.64885 16.3058 8.08832 16.3058 9.09343C16.3058 10.4975 15.0661 11.2813 13.4905 11.2813C12.4275 11.2813 11.6269 10.9275 11.6269 10.9275L11.9243 9.53451C11.9243 9.53451 12.6193 9.95334 13.5492 9.95334C14.2045 9.95334 14.5881 9.65358 14.5881 9.31872C14.5881 8.98885 14.1952 8.777 13.7352 8.52903C13.0863 8.17918 12.3041 7.75746 12.3041 6.83103ZM1.8137 5.00811L1.8486 4.80503H4.59969C4.99695 4.80503 5.32151 5.04479 5.3856 5.46503L6.08428 9.13706L7.79646 4.80503H9.52212L6.85748 11.1766H5.12785L3.83757 6.20119C3.71914 5.74217 3.66908 5.59435 2.966 5.34051C2.41996 5.11909 1.8137 5.00811 1.8137 5.00811ZM8.86231 11.1766L10.216 4.80503H11.8569L10.5079 11.1766H8.86231ZM18.6326 5.38888C18.7869 5.01755 18.9972 4.80503 19.394 4.80503H20.781L22.1094 11.1766H20.5867L20.3837 10.212H18.2813L17.9474 11.1766H16.2218L18.6326 5.38888Z" fill="#393939"/>
</g>
<defs>
<clipPath id="clip0_23692_15139">
<rect width="24" height="15.3846" fill="white" transform="translate(0 0.307739)"/>
</clipPath>
</defs>
</svg>
