<svg width="24" height="24" viewBox="0 0 24 24" fill="none" xmlns="http://www.w3.org/2000/svg">
<g clip-path="url(#clip0_23692_15132)">
<path d="M6.31554 20.9202L6.70744 21.1163C8.30541 22.0673 10.1323 22.5644 11.9916 22.5541C17.7153 22.541 22.4181 17.8243 22.4181 12.0973C22.4181 9.32957 21.3195 6.67159 19.3658 4.71225C17.4148 2.73267 14.7493 1.61707 11.9713 1.61707C6.27373 1.61707 1.58594 6.30823 1.58594 12.0084C1.58594 12.0535 1.58594 12.098 1.58659 12.1431C1.60375 14.0811 2.14549 15.9783 3.1542 17.6329L3.41546 18.025L2.3704 21.8809L6.31554 20.9202Z" fill="#00E676"/>
<path d="M20.5291 3.53591C18.305 1.26548 15.2541 -0.00826406 12.0771 0.00672256H12.0568C5.51406 0.00674304 0.129993 5.39394 0.129993 11.9405C0.129993 11.9712 0.130648 12.0013 0.130648 12.032C0.155292 14.1134 0.693804 16.1564 1.69826 17.9793L0 24.188L6.32921 22.5541C8.07766 23.5146 10.0433 24.0096 12.0379 23.9919C18.6048 23.9559 23.9883 18.5381 23.9843 11.9666C24 8.80936 22.7557 5.77299 20.5291 3.53591ZM12.0771 21.9659C10.309 21.9751 8.57215 21.5005 7.05421 20.5935L6.66231 20.3974L2.89353 21.3777L3.87328 17.6525L3.61202 17.2604C2.64154 15.6924 2.12739 13.8848 2.12736 12.0405C2.12736 6.6017 6.60027 2.12618 12.0359 2.12618C17.4716 2.12618 21.9445 6.6017 21.9445 12.0405C21.9445 15.4651 20.1711 18.6557 17.2632 20.4627C15.7253 21.4485 13.9362 21.9703 12.1097 21.9659M17.8511 14.7115L17.1326 14.3848C17.1326 14.3848 16.0875 13.9273 15.4344 13.6005C15.3691 13.6005 15.3037 13.5352 15.2384 13.5352C15.0774 13.5391 14.92 13.5841 14.7812 13.6659C14.6421 13.7476 14.7159 13.7312 13.8014 14.7769C13.7394 14.8991 13.612 14.9756 13.4749 14.973H13.4095C13.3113 14.9565 13.2203 14.911 13.1483 14.8423L12.8217 14.7115C12.1209 14.4147 11.4793 13.9941 10.9275 13.4698C10.7969 13.3391 10.6009 13.2084 10.4703 13.0777C9.98674 12.6142 9.56916 12.0864 9.22927 11.5092L9.16394 11.3785C9.1072 11.2986 9.06314 11.2104 9.03331 11.117C9.01623 11.0038 9.03934 10.8882 9.09862 10.7903C9.15806 10.6922 9.3599 10.4635 9.55584 10.2674C9.7518 10.0714 9.7518 9.94066 9.88243 9.80994C9.94957 9.71665 9.99596 9.61005 10.0185 9.49732C10.041 9.38459 10.0392 9.26834 10.0131 9.15639C9.70866 8.31073 9.35982 7.48175 8.968 6.67293C8.86297 6.50949 8.69935 6.39255 8.51078 6.34615H7.79229C7.66166 6.34615 7.53103 6.4115 7.40038 6.4115L7.33507 6.47685C7.20444 6.5422 7.07381 6.67292 6.94317 6.73828C6.81254 6.80363 6.74723 6.9997 6.6166 7.13041C6.15998 7.70776 5.90733 8.42018 5.89811 9.15639C5.90534 9.67426 6.01639 10.1854 6.22468 10.6596L6.29001 10.8556C6.8765 12.1103 7.69672 13.2415 8.70674 14.1887L8.968 14.4501C9.15812 14.6077 9.33306 14.7827 9.49053 14.973C10.8439 16.1513 12.4513 17.0009 14.1868 17.4564C14.3828 17.5218 14.644 17.5218 14.84 17.5871H15.4932C15.8345 17.5703 16.1685 17.4812 16.4729 17.3257C16.6329 17.2532 16.7858 17.1656 16.9301 17.0643L17.0607 16.9336C17.1914 16.8029 17.322 16.7375 17.4526 16.6068C17.5803 16.493 17.6904 16.3609 17.7792 16.2147C17.9046 15.9219 17.9928 15.6147 18.0405 15.2997V14.8423C17.9818 14.7895 17.9158 14.7455 17.8445 14.7115" fill="white"/>
</g>
<defs>
<clipPath id="clip0_23692_15132">
<rect width="24" height="24" fill="white"/>
</clipPath>
</defs>
</svg>
