<svg width="174" height="59" viewBox="0 0 174 59" fill="none" xmlns="http://www.w3.org/2000/svg">
<g clip-path="url(#clip0_23479_65501)">
<path d="M160 0.630071H14.1299C13.5982 0.630071 13.0729 0.630071 12.5426 0.632971C12.0987 0.635871 11.6583 0.644296 11.21 0.651386C10.2364 0.662848 9.26506 0.748505 8.30445 0.907615C7.34517 1.07019 6.41594 1.3767 5.54819 1.81676C4.6815 2.26055 3.88958 2.83721 3.20115 3.52581C2.50912 4.21248 1.93225 5.00618 1.49274 5.87639C1.05202 6.74486 0.746415 7.67551 0.586494 8.63619C0.425053 9.59566 0.33818 10.5662 0.326655 11.5391C0.313199 11.9837 0.311778 12.4297 0.304688 12.8743V46.3899C0.311778 46.8401 0.313199 47.2763 0.326655 47.7266C0.338184 48.6995 0.425057 49.67 0.586494 50.6294C0.745973 51.5906 1.05159 52.5218 1.49274 53.3906C1.93205 54.258 2.509 55.0485 3.20115 55.7313C3.88697 56.423 4.6794 57.0001 5.54819 57.4404C6.41594 57.8817 7.34507 58.19 8.30445 58.3551C9.26525 58.513 10.2365 58.5986 11.2101 58.6115C11.6583 58.6213 12.0987 58.627 12.5426 58.627C13.0729 58.6299 13.5982 58.6299 14.1299 58.6299H160C160.521 58.6299 161.05 58.6299 161.571 58.627C162.013 58.627 162.466 58.6213 162.908 58.6115C163.88 58.5993 164.849 58.5136 165.808 58.3551C166.771 58.1889 167.703 57.8806 168.575 57.4404C169.443 56.9998 170.235 56.4228 170.92 55.7313C171.61 55.0458 172.188 54.2559 172.633 53.3906C173.071 52.5212 173.374 51.5901 173.531 50.6294C173.693 49.6698 173.783 48.6996 173.8 47.7266C173.806 47.2763 173.806 46.8401 173.806 46.3899C173.817 45.8631 173.817 45.3392 173.817 44.8039V14.4574C173.817 13.9264 173.817 13.3997 173.806 12.8743C173.806 12.4297 173.806 11.9837 173.8 11.539C173.783 10.5661 173.693 9.59573 173.531 8.63613C173.373 7.67601 173.071 6.74543 172.633 5.87633C171.738 4.13209 170.319 2.7123 168.575 1.81663C167.703 1.37764 166.77 1.07122 165.808 0.907484C164.849 0.74767 163.88 0.661982 162.908 0.651183C162.466 0.644107 162.013 0.63561 161.571 0.632783C161.05 0.629883 160.521 0.629883 160 0.629883V0.630071Z" fill="black"/>
<path d="M12.5494 57.3608C12.1076 57.3608 11.6765 57.3551 11.2382 57.3452C10.3302 57.3334 9.42431 57.2544 8.52797 57.1087C7.69218 56.9648 6.88252 56.697 6.1257 56.3143C5.37583 55.9347 4.69188 55.437 4.10006 54.8402C3.49968 54.2505 2.99983 53.5665 2.62033 52.8153C2.23664 52.0593 1.97111 51.2489 1.83298 50.4124C1.68381 49.5136 1.6031 48.6047 1.59155 47.6936C1.58236 47.3878 1.57031 46.3697 1.57031 46.3697V12.8739C1.57031 12.8739 1.58314 11.8714 1.59163 11.5769C1.60268 10.6673 1.68292 9.75981 1.83165 8.86237C1.97003 8.02358 2.23577 7.21086 2.61966 6.45234C2.99776 5.70167 3.49483 5.01712 4.09161 4.42524C4.68771 3.82779 5.37385 3.32754 6.12499 2.94274C6.88007 2.56122 7.6882 2.29535 8.5223 2.15403C9.42158 2.00695 10.3306 1.92743 11.2418 1.91614L12.5501 1.89844H161.564L162.888 1.91685C163.791 1.92758 164.692 2.00639 165.583 2.15261C166.425 2.2957 167.242 2.56343 168.006 2.94699C169.51 3.72251 170.735 4.94947 171.507 6.45587C171.885 7.20916 172.147 8.01525 172.283 8.8468C172.434 9.7516 172.518 10.6662 172.535 11.5832C172.539 11.9939 172.539 12.435 172.539 12.8739C172.551 13.4177 172.551 13.9352 172.551 14.457V44.8035C172.551 45.3303 172.551 45.8443 172.539 46.3625C172.539 46.8341 172.539 47.266 172.534 47.7106C172.517 48.6113 172.434 49.5096 172.286 50.3982C172.151 51.2407 171.887 52.0574 171.503 52.8197C171.121 53.5627 170.624 54.2408 170.03 54.8289C169.438 55.4289 168.753 55.9295 168.001 56.3115C167.24 56.6972 166.424 56.966 165.583 57.1087C164.686 57.2551 163.78 57.3342 162.872 57.3452C162.448 57.3551 162.003 57.3608 161.571 57.3608L159.999 57.3637L12.5494 57.3608Z" fill="white"/>
<path d="M156.023 29.4694C156.039 28.2108 156.373 26.9768 156.995 25.8822C157.616 24.7876 158.504 23.8679 159.576 23.2087C158.895 22.2359 157.997 21.4353 156.952 20.8706C155.907 20.3058 154.745 19.9924 153.558 19.9553C151.026 19.6895 148.572 21.4704 147.281 21.4704C145.966 21.4704 143.979 19.9817 141.84 20.0257C140.456 20.0704 139.108 20.4727 137.926 21.1936C136.744 21.9144 135.769 22.9291 135.096 24.1389C132.18 29.1877 134.355 36.6079 137.148 40.6891C138.546 42.6875 140.179 44.9198 142.317 44.8407C144.408 44.7539 145.189 43.507 147.714 43.507C150.215 43.507 150.948 44.8407 153.128 44.7903C155.373 44.7539 156.787 42.783 158.135 40.7657C159.139 39.3417 159.912 37.768 160.425 36.1027C159.121 35.5512 158.008 34.6281 157.225 33.4485C156.443 32.2689 156.024 30.885 156.023 29.4694Z" fill="black"/>
<path d="M151.903 17.2711C153.127 15.8022 153.73 13.9141 153.584 12.0078C151.714 12.2042 149.987 13.0976 148.747 14.5102C148.141 15.2003 147.676 16.0032 147.38 16.8728C147.085 17.7425 146.963 18.662 147.023 19.5787C147.958 19.5883 148.883 19.3857 149.728 18.9859C150.573 18.5862 151.317 17.9999 151.903 17.2711Z" fill="black"/>
<path d="M25.2429 39.9825H18.3795L16.7313 44.8493H13.8242L20.3251 26.8433H23.3455L29.8464 44.8493H26.8897L25.2429 39.9825ZM19.0904 37.7367H24.5308L21.8488 29.8382H21.7738L19.0904 37.7367Z" fill="black"/>
<path d="M43.8856 38.2864C43.8856 42.366 41.7021 44.987 38.407 44.987C37.5723 45.0307 36.7422 44.8384 36.0117 44.4322C35.2812 44.026 34.6798 43.4223 34.2765 42.6902H34.2142V49.1925H31.5195V31.7218H34.1278V33.9053H34.1773C34.5992 33.1767 35.2107 32.5761 35.9468 32.1675C36.6829 31.7588 37.516 31.5573 38.3574 31.5845C41.6893 31.5845 43.8856 34.2182 43.8856 38.2864ZM41.1158 38.2864C41.1158 35.6286 39.7423 33.8812 37.6466 33.8812C35.5877 33.8812 34.2029 35.6654 34.2029 38.2864C34.2029 40.9315 35.5877 42.703 37.6466 42.703C39.7423 42.703 41.1158 40.9684 41.1158 38.2864H41.1158Z" fill="black"/>
<path d="M58.3355 38.2864C58.3355 42.366 56.1513 44.987 52.8563 44.987C52.0216 45.0307 51.1915 44.8384 50.461 44.4322C49.7305 44.026 49.1291 43.4223 48.7258 42.6902H48.6634V49.1925H45.9688V31.7218H48.577V33.9053H48.6266C49.0485 33.1767 49.66 32.5762 50.396 32.1675C51.1321 31.7588 51.9652 31.5573 52.8067 31.5845C56.1386 31.5845 58.3355 34.2182 58.3355 38.2864ZM55.5651 38.2864C55.5651 35.6286 54.1916 33.8812 52.0959 33.8812C50.037 33.8812 48.6522 35.6654 48.6522 38.2864C48.6522 40.9316 50.037 42.703 52.0959 42.703C54.1916 42.703 55.5651 40.9684 55.5651 38.2864Z" fill="black"/>
<path d="M67.8835 39.8323C68.0831 41.6179 69.8177 42.7903 72.1881 42.7903C74.4594 42.7903 76.0935 41.6178 76.0935 40.0078C76.0935 38.6102 75.1079 37.7734 72.7744 37.1999L70.4408 36.6377C67.1344 35.8391 65.5994 34.2928 65.5994 31.7836C65.5994 28.6769 68.3069 26.543 72.1499 26.543C75.9561 26.543 78.5644 28.6769 78.6522 31.7836H75.9321C75.7692 29.9867 74.2838 28.9021 72.1131 28.9021C69.9423 28.9021 68.4569 29.9995 68.4569 31.5967C68.4569 32.8697 69.4057 33.6188 71.7265 34.1922L73.7103 34.6793C77.4047 35.553 78.9382 37.037 78.9382 39.6708C78.9382 43.0395 76.2563 45.1493 71.9884 45.1493C67.9953 45.1493 65.2992 43.089 65.125 39.8322L67.8835 39.8323Z" fill="black"/>
<path d="M84.7568 28.6147V31.7215H87.2532V33.8554H84.7568V41.0926C84.7568 42.2169 85.2567 42.7409 86.3541 42.7409C86.6504 42.7357 86.9463 42.7149 87.2405 42.6785V44.7997C86.7471 44.8919 86.2456 44.9336 85.7438 44.9243C83.0859 44.9243 82.0494 43.926 82.0494 41.38V33.8554H80.1406V31.7215H82.0494V28.6147H84.7568Z" fill="black"/>
<path d="M88.6992 38.2861C88.6992 34.1556 91.1319 31.5601 94.9255 31.5601C98.7317 31.5601 101.153 34.1556 101.153 38.2861C101.153 42.4279 98.7445 45.0122 94.9255 45.0122C91.1078 45.0122 88.6992 42.4279 88.6992 38.2861ZM98.4074 38.2861C98.4074 35.4527 97.1089 33.7804 94.9254 33.7804C92.7419 33.7804 91.4434 35.4654 91.4434 38.2861C91.4434 41.1309 92.7419 42.7904 94.9254 42.7904C97.1089 42.7904 98.4074 41.1309 98.4074 38.2861Z" fill="black"/>
<path d="M103.375 31.7217H105.945V33.9561H106.007C106.181 33.2583 106.59 32.6415 107.165 32.2096C107.74 31.7777 108.446 31.5569 109.165 31.5843C109.476 31.5832 109.785 31.617 110.088 31.6849V34.2054C109.696 34.0856 109.287 34.0306 108.878 34.0425C108.486 34.0266 108.096 34.0957 107.734 34.2448C107.371 34.394 107.046 34.6198 106.779 34.9068C106.512 35.1937 106.311 35.535 106.188 35.9072C106.066 36.2793 106.025 36.6736 106.07 37.0629V44.8495H103.375V31.7217Z" fill="black"/>
<path d="M122.51 40.9935C122.148 43.3767 119.827 45.0122 116.857 45.0122C113.038 45.0122 110.668 42.4534 110.668 38.3484C110.668 34.2307 113.051 31.5601 116.744 31.5601C120.376 31.5601 122.66 34.0551 122.66 38.0355V38.9587H113.388V39.1216C113.345 39.6047 113.406 40.0914 113.566 40.5494C113.725 41.0073 113.981 41.4261 114.315 41.7778C114.649 42.1295 115.054 42.4061 115.503 42.5892C115.952 42.7723 116.435 42.8578 116.92 42.84C117.556 42.8997 118.195 42.7522 118.742 42.4195C119.288 42.0868 119.712 41.5867 119.951 40.9935H122.51ZM113.401 37.0754H119.964C119.987 36.6615 119.928 36.247 119.791 35.8558C119.654 35.4645 119.441 35.1041 119.165 34.7951C118.889 34.486 118.554 34.2345 118.18 34.0548C117.807 33.8751 117.401 33.7707 116.987 33.7477C116.906 33.7432 116.825 33.7418 116.744 33.7435C116.308 33.7409 115.875 33.8243 115.471 33.9889C115.067 34.1535 114.699 34.3961 114.388 34.7029C114.078 35.0097 113.831 35.3746 113.661 35.7768C113.492 36.179 113.404 36.6106 113.401 37.0471C113.401 37.0565 113.401 37.066 113.401 37.0754Z" fill="black"/>
<path d="M78.3076 23.9512H77.3603C75.5159 23.9512 73.5703 23.5724 73.5703 21.0201C73.694 19.8724 73.9569 18.744 74.3533 17.6599L75.5789 17.9884L75.4019 18.5569C75.1397 19.3565 74.9661 20.1825 74.8843 21.02C74.8843 22.7759 76.5644 22.7759 77.7014 22.7759H78.4972C79.0658 22.7759 79.8488 22.5486 79.8488 21.8286V16.8386H81.2011V20.5782C81.4924 20.7018 81.8066 20.7619 82.1229 20.7545H82.5902V21.9171H82.1229C81.8106 21.9149 81.5002 21.8682 81.2011 21.7783V21.9552C81.2012 22.6116 80.6957 23.9512 78.3076 23.9512ZM77.5373 15.4742C77.3783 15.4658 77.2253 15.411 77.0971 15.3167C76.9689 15.2223 76.8711 15.0925 76.8158 14.9433C76.7605 14.7941 76.75 14.6319 76.7858 14.4768C76.8215 14.3217 76.9018 14.1804 77.0169 14.0704C77.1319 13.9604 77.2766 13.8864 77.4332 13.8577C77.5897 13.8289 77.7513 13.8466 77.8979 13.9085C78.0445 13.9704 78.1698 14.0739 78.2583 14.2062C78.3469 14.3385 78.3947 14.4938 78.3961 14.653C78.4019 14.8654 78.323 15.0715 78.1769 15.2259C78.0307 15.3802 77.8292 15.4702 77.6167 15.476C77.5902 15.4767 77.5637 15.4761 77.5373 15.4742V15.4742Z" fill="black"/>
<path d="M84.1159 20.754C83.9602 20.1992 83.8877 19.6244 83.9006 19.0484C83.8608 18.6674 83.9024 18.2823 84.0227 17.9187C84.1431 17.555 84.3394 17.2211 84.5987 16.9392C84.858 16.6572 85.1742 16.4336 85.5265 16.2832C85.8788 16.1329 86.2591 16.0591 86.642 16.067C88.4361 16.067 89.1314 17.5325 89.1314 19.2764C89.1314 20.5649 88.6761 22.308 86.9203 22.308C86.3413 22.2521 85.7722 22.1205 85.2275 21.9165H82.3594V20.754L84.1159 20.754ZM85.4802 20.8049C85.9094 20.9865 86.3665 21.0933 86.8318 21.1207C87.6148 21.1207 87.8301 20.1224 87.8301 19.2381C87.8301 18.3921 87.5901 17.1792 86.5663 17.1792C85.6445 17.1792 85.2402 18.0381 85.2402 19.1249C85.223 19.6945 85.3042 20.2629 85.4802 20.8049V20.8049Z" fill="black"/>
<path d="M98.0466 23.9506H97.0993C95.2542 23.9506 93.3086 23.5719 93.3086 21.0195C93.4326 19.8719 93.6956 18.7436 94.0916 17.6593L95.3178 17.9878L95.1408 18.5564C94.8784 19.3559 94.7046 20.1819 94.6226 21.0195C94.6226 22.7753 96.3034 22.7753 97.4405 22.7753H98.2363C98.8041 22.7753 99.5871 22.5481 99.5871 21.828V13.4014H100.939V20.5777C101.231 20.7012 101.545 20.7613 101.861 20.754H102.329V21.9165H101.861C101.549 21.9143 101.239 21.8676 100.939 21.7778V21.9547C100.939 22.6111 100.434 23.9506 98.0466 23.9506Z" fill="black"/>
<path d="M106.874 16.1309V19.6808C106.874 21.1839 105.976 21.9167 104.195 21.9167H102.098V20.7541H104.145C105.219 20.7541 105.509 20.2869 105.509 19.4911V16.1309H106.874ZM103.488 24.7466C103.329 24.738 103.176 24.6831 103.048 24.5887C102.92 24.4943 102.822 24.3644 102.767 24.2152C102.712 24.0659 102.702 23.9038 102.737 23.7487C102.773 23.5936 102.854 23.4524 102.969 23.3425C103.084 23.2325 103.228 23.1586 103.385 23.1299C103.541 23.1012 103.703 23.1189 103.85 23.1809C103.996 23.2428 104.121 23.3463 104.21 23.4786C104.298 23.6109 104.346 23.7661 104.348 23.9253C104.351 24.0372 104.33 24.1486 104.288 24.2522C104.245 24.3558 104.181 24.4493 104.1 24.5267C104.019 24.604 103.923 24.6636 103.817 24.7015C103.712 24.7393 103.6 24.7547 103.488 24.7466H103.488ZM105.611 24.7466C105.452 24.7383 105.299 24.6836 105.17 24.5893C105.042 24.4951 104.944 24.3653 104.889 24.2161C104.833 24.0668 104.823 23.9046 104.858 23.7495C104.894 23.5943 104.974 23.453 105.089 23.3429C105.204 23.2329 105.349 23.1588 105.506 23.13C105.662 23.1012 105.824 23.1188 105.97 23.1808C106.117 23.2427 106.242 23.3462 106.331 23.4785C106.42 23.6108 106.467 23.7661 106.469 23.9253C106.475 24.1378 106.396 24.3439 106.25 24.4982C106.103 24.6525 105.902 24.7425 105.689 24.7483C105.663 24.749 105.637 24.7484 105.611 24.7466H105.611Z" fill="black"/>
<path d="M107.883 23.8124C108.076 23.836 108.27 23.8486 108.464 23.8499C109.577 23.8499 110.132 23.2056 110.132 21.9043V16.8258H111.497V20.7545H112.747V21.9171H111.484C111.499 22.7783 111.187 23.6134 110.612 24.2542C109.998 24.7679 109.214 25.0338 108.414 24.9997C108.127 24.9952 107.84 24.9741 107.555 24.9367L107.883 23.8124ZM110.751 15.6002C110.592 15.5917 110.439 15.5368 110.311 15.4424C110.183 15.3479 110.085 15.2181 110.03 15.0688C109.974 14.9196 109.964 14.7574 110 14.6024C110.036 14.4473 110.116 14.3061 110.231 14.1961C110.346 14.0862 110.491 14.0123 110.647 13.9836C110.804 13.9549 110.965 13.9726 111.112 14.0346C111.259 14.0965 111.384 14.2 111.472 14.3323C111.561 14.4645 111.609 14.6198 111.61 14.779C111.613 14.8909 111.593 15.0023 111.55 15.106C111.508 15.2096 111.444 15.3031 111.363 15.3805C111.282 15.4579 111.185 15.5174 111.08 15.5553C110.975 15.5932 110.862 15.6085 110.751 15.6002Z" fill="black"/>
<path d="M117.228 21.9169C116.683 21.9 116.151 21.7527 115.675 21.4872C115.021 21.8373 114.278 21.9868 113.539 21.9169H112.516V20.7544H113.616C114.651 20.7544 114.853 20.5901 114.853 19.8326V16.1311H116.206V20.5271C116.525 20.6804 116.874 20.7582 117.228 20.7544H118.075V21.917L117.228 21.9169ZM115.472 14.8673C115.313 14.8588 115.16 14.8039 115.032 14.7095C114.904 14.615 114.806 14.4852 114.751 14.3359C114.696 14.1867 114.686 14.0245 114.721 13.8695C114.757 13.7144 114.838 13.5732 114.953 13.4632C115.068 13.3533 115.212 13.2794 115.369 13.2507C115.526 13.222 115.687 13.2397 115.834 13.3016C115.98 13.3636 116.105 13.4671 116.194 13.5994C116.283 13.7316 116.33 13.8869 116.332 14.046C116.335 14.158 116.314 14.2694 116.272 14.3731C116.229 14.4767 116.165 14.5702 116.084 14.6476C116.003 14.725 115.907 14.7845 115.802 14.8224C115.696 14.8602 115.584 14.8756 115.472 14.8673Z" fill="black"/>
<path d="M121.31 16.1311V19.6811C121.31 21.1842 120.413 21.917 118.632 21.917H117.848V20.7544H118.581C119.655 20.7544 119.945 20.2871 119.945 19.4913V16.1311H121.31ZM119.3 14.8673C119.142 14.8588 118.989 14.8039 118.861 14.7095C118.732 14.615 118.635 14.4852 118.579 14.3359C118.524 14.1867 118.514 14.0245 118.55 13.8695C118.585 13.7144 118.666 13.5732 118.781 13.4632C118.896 13.3533 119.041 13.2794 119.197 13.2507C119.354 13.222 119.515 13.2397 119.662 13.3016C119.809 13.3636 119.934 13.4671 120.022 13.5994C120.111 13.7316 120.159 13.8869 120.16 14.046C120.163 14.158 120.143 14.2694 120.1 14.3731C120.058 14.4767 119.994 14.5702 119.913 14.6476C119.832 14.725 119.735 14.7845 119.63 14.8224C119.524 14.8602 119.412 14.8756 119.3 14.8673ZM121.423 14.8673C121.264 14.8588 121.111 14.8039 120.983 14.7095C120.855 14.615 120.757 14.4852 120.702 14.3359C120.647 14.1867 120.637 14.0245 120.672 13.8695C120.708 13.7144 120.788 13.5732 120.904 13.4632C121.019 13.3533 121.163 13.2794 121.32 13.2507C121.476 13.222 121.638 13.2397 121.785 13.3016C121.931 13.3636 122.056 13.4671 122.145 13.5994C122.233 13.7316 122.281 13.8869 122.283 14.046C122.286 14.158 122.265 14.2694 122.223 14.3731C122.18 14.4767 122.116 14.5702 122.035 14.6476C121.954 14.725 121.858 14.7845 121.752 14.8224C121.647 14.8602 121.535 14.8756 121.423 14.8673Z" fill="black"/>
</g>
<defs>
<clipPath id="clip0_23479_65501">
<rect width="173.512" height="58" fill="white" transform="translate(0.304688 0.629883)"/>
</clipPath>
</defs>
</svg>
