<svg width="70" height="70" viewBox="0 0 70 70" fill="none" xmlns="http://www.w3.org/2000/svg">
<g clip-path="url(#clip0_23573_8191)">
<rect x="0.5" y="0.5" width="69" height="69" rx="34.5" stroke="white"/>
<circle opacity="0.25" cx="35" cy="35" r="35" fill="white"/>
<path d="M35 12.5C22.58 12.5 12.5 22.58 12.5 35C12.5 47.42 22.58 57.5 35 57.5C47.42 57.5 57.5 47.42 57.5 35C57.5 22.58 47.42 12.5 35 12.5ZM40.985 38.8925L38.105 40.5575L35.225 42.2225C31.5125 44.36 28.475 42.605 28.475 38.33V35V31.67C28.475 27.3725 31.5125 25.64 35.225 27.7775L38.105 29.4425L40.985 31.1075C44.6975 33.245 44.6975 36.755 40.985 38.8925Z" fill="white"/>
</g>
<defs>
<clipPath id="clip0_23573_8191">
<rect width="70" height="70" fill="white"/>
</clipPath>
</defs>
</svg>
