<svg width="24" height="24" viewBox="0 0 24 24" fill="none" xmlns="http://www.w3.org/2000/svg">
<path d="M16.4105 7.66058L16.4105 7.66057L16.4069 7.65674C15.7412 6.94735 14.8861 6.38998 14.02 6.38998C14.0152 6.38998 14.0133 6.38918 14.0125 6.38882C14.011 6.38822 14.0088 6.38695 14.0065 6.38453C14.004 6.38206 14.0023 6.37934 14.0013 6.37701C14.0005 6.37512 14 6.3731 14 6.36998L14 6.36959L14.0006 6.36792C14.0016 6.36563 14.0038 6.36181 14.0078 6.35781C14.0118 6.3538 14.0157 6.35156 14.0179 6.35058L14.0196 6.35L14.02 6.34998C14.7481 6.34998 15.6142 6.74949 16.4454 7.62561C17.2367 8.4632 17.65 9.41732 17.65 9.96998C17.65 9.97489 17.6491 9.97802 17.648 9.98061C17.6467 9.98372 17.6444 9.98739 17.6409 9.9909C17.6374 9.9944 17.6337 9.9967 17.6306 9.99802C17.628 9.99912 17.6249 9.99998 17.62 9.99998C17.6152 9.99998 17.6133 9.99918 17.6125 9.99882C17.611 9.99822 17.6089 9.99695 17.6065 9.99453C17.604 9.99206 17.6023 9.98934 17.6013 9.98701C17.6005 9.98512 17.6 9.9831 17.6 9.97998C17.6 9.60711 17.4359 9.18858 17.251 8.83774C17.0504 8.45727 16.7649 8.0436 16.4105 7.66058Z" fill="#3C8799" stroke="#3C8799" stroke-width="1.5"/>
<path d="M21.2317 10C21.2269 10 21.225 9.99921 21.2242 9.99885C21.2228 9.99825 21.2206 9.99697 21.2182 9.99455C21.2157 9.99208 21.214 9.98937 21.213 9.98704C21.2122 9.98514 21.2117 9.98312 21.2117 9.98C21.2117 6.01503 17.9852 2.8 14.0317 2.8C14.0269 2.8 14.025 2.79921 14.0242 2.79885C14.0228 2.79825 14.0206 2.79697 14.0182 2.79455C14.0157 2.79208 14.014 2.78937 14.013 2.78704C14.0122 2.78514 14.0117 2.78312 14.0117 2.78C14.0117 2.77669 14.0123 2.77276 14.0143 2.76791C14.0165 2.76263 14.0199 2.75742 14.0239 2.75328C14.0253 2.75182 14.0266 2.75076 14.0275 2.75C18.0107 2.75315 21.2517 5.99615 21.2517 9.98L21.2517 9.98038L21.2511 9.98206C21.2501 9.98434 21.2479 9.98817 21.2439 9.99217C21.2399 9.99617 21.2361 9.99841 21.2338 9.99939L21.2321 9.99997L21.2317 10Z" fill="#3C8799" stroke="#3C8799" stroke-width="1.5"/>
<path opacity="0.4" d="M11.79 14.21L8.52 17.48C8.16 17.16 7.81 16.83 7.47 16.49C6.44 15.45 5.51 14.36 4.68 13.22C3.86 12.08 3.2 10.94 2.72 9.81C2.24 8.67 2 7.58 2 6.54C2 5.86 2.12 5.21 2.36 4.61C2.6 4 2.98 3.44 3.51 2.94C4.15 2.31 4.85 2 5.59 2C5.87 2 6.15 2.06 6.4 2.18C6.66 2.3 6.89 2.48 7.07 2.74L9.39 6.01C9.57 6.26 9.7 6.49 9.79 6.71C9.88 6.92 9.93 7.13 9.93 7.32C9.93 7.56 9.86 7.8 9.72 8.03C9.59 8.26 9.4 8.5 9.16 8.74L8.4 9.53C8.29 9.64 8.24 9.77 8.24 9.93C8.24 10.01 8.25 10.08 8.27 10.16C8.3 10.24 8.33 10.3 8.35 10.36C8.53 10.69 8.84 11.12 9.28 11.64C9.73 12.16 10.21 12.69 10.73 13.22C11.09 13.57 11.44 13.91 11.79 14.21Z" fill="#3C8799"/>
<path d="M21.9716 18.33C21.9716 18.61 21.9216 18.9 21.8216 19.18C21.7916 19.26 21.7616 19.34 21.7216 19.42C21.5516 19.78 21.3316 20.12 21.0416 20.44C20.5516 20.98 20.0116 21.37 19.4016 21.62C19.3916 21.62 19.3816 21.63 19.3716 21.63C18.7816 21.87 18.1416 22 17.4516 22C16.4316 22 15.3416 21.76 14.1916 21.27C13.0416 20.78 11.8916 20.12 10.7516 19.29C10.3616 19 9.97156 18.71 9.60156 18.4L12.8716 15.13C13.1516 15.34 13.4016 15.5 13.6116 15.61C13.6616 15.63 13.7216 15.66 13.7916 15.69C13.8716 15.72 13.9516 15.73 14.0416 15.73C14.2116 15.73 14.3416 15.67 14.4516 15.56L15.2116 14.81C15.4616 14.56 15.7016 14.37 15.9316 14.25C16.1616 14.11 16.3916 14.04 16.6416 14.04C16.8316 14.04 17.0316 14.08 17.2516 14.17C17.4716 14.26 17.7016 14.39 17.9516 14.56L21.2616 16.91C21.5216 17.09 21.7016 17.3 21.8116 17.55C21.9116 17.8 21.9716 18.05 21.9716 18.33Z" fill="#3C8799"/>
</svg>
