<svg width="24" height="24" viewBox="0 0 24 24" fill="none" xmlns="http://www.w3.org/2000/svg">
<path opacity="0.4" d="M18.25 10.28V17.4261C18.2347 18.8423 18.0198 19.4354 17.6986 19.7375C17.3641 20.0522 16.71 20.25 15.22 20.25H5.78003C4.26443 20.25 3.61379 20.0438 3.2843 19.7187C2.95829 19.397 2.75 18.7631 2.75 17.27V10.28C2.75 8.93532 2.91992 8.28305 3.19902 7.9309C3.44461 7.62105 3.90924 7.38657 5.03784 7.31912C5.27492 7.30926 5.51934 7.30005 5.78003 7.30005H15.22C16.7356 7.30005 17.3862 7.50627 17.7157 7.8314C18.0417 8.1531 18.25 8.78701 18.25 10.28Z" fill="#3C8799" stroke="#3C8799" stroke-width="1.5"/>
<path d="M22 6.73V13.72C22 16.42 21.37 17.29 19 17.43V10.28C19 7.3 18.24 6.55 15.22 6.55H5.78003C5.50003 6.55 5.24 6.56 5 6.57C5.03 3.72 5.81003 3 8.78003 3H18.22C21.24 3 22 3.75 22 6.73Z" fill="#3C8799"/>
<path d="M6.95831 18.5601H5.23828C4.82828 18.5601 4.48828 18.2201 4.48828 17.8101C4.48828 17.4001 4.82828 17.0601 5.23828 17.0601H6.95831C7.36831 17.0601 7.70831 17.4001 7.70831 17.8101C7.70831 18.2201 7.37831 18.5601 6.95831 18.5601Z" fill="#3C8799"/>
<path d="M12.5494 18.5601H9.10938C8.69938 18.5601 8.35938 18.2201 8.35938 17.8101C8.35938 17.4001 8.69938 17.0601 9.10938 17.0601H12.5494C12.9594 17.0601 13.2994 17.4001 13.2994 17.8101C13.2994 18.2201 12.9694 18.5601 12.5494 18.5601Z" fill="#3C8799"/>
<path d="M19 11.86H2V13.36H19V11.86Z" fill="#3C8799"/>
</svg>
