<svg width="24" height="24" viewBox="0 0 24 24" fill="none" xmlns="http://www.w3.org/2000/svg">
<path opacity="0.4" d="M8.7409 20.1794L8.74111 20.1796C9.65731 21.0612 10.8293 21.5 12.0011 21.5C13.1735 21.5 14.3438 21.0609 15.2485 20.182L15.2512 20.1794C18.0702 17.4689 20.9672 13.3682 19.8896 8.61585C18.9353 4.41751 15.28 2.5 12.0011 2.5H12.0011H12.0011H12.001H12.001H12.001H12.001H12.001H12.001H12.001H12.001H12.001H12.001H12.001H12.001H12.0009H12.0009H12.0009H12.0009H12.0009H12.0009H12.0009H12.0009H12.0009H12.0009H12.0009H12.0009H12.0008H12.0008H12.0008H12.0008H12.0008H12.0008H12.0008H12.0008H12.0008H12.0007H12.0007H12.0007H12.0007H12.0007H12.0007H12.0007H12.0007H12.0006H12.0006H12.0006H12.0006H12.0006H12.0006H12.0006H12.0006H12.0006H12.0006H12.0006H12.0006H12.0005H12.0005H12.0005H12.0005H12.0005H12.0005H12.0005H12.0005H12.0005H12.0005H12.0005H12.0004H12.0004H12.0004H12.0004H12.0004H12.0004H12.0004H12.0004H12.0004H12.0004H12.0004H12.0003H12.0003H12.0003H12.0003H12.0003H12.0003H12.0003H12.0003H12.0003H12.0002H12.0002H12.0002H12.0002H12.0002H12.0002H12.0002H12.0002H12.0002H12.0001H12.0001H12.0001H12.0001H12.0001H12.0001H12.0001H12.0001H12H12H12H12H12H12H12H11.9999H11.9999H11.9999H11.9999H11.9999H11.9999H11.9999H11.9999H11.9998H11.9998H11.9998H11.9998H11.9998H11.9998H11.9997H11.9997H11.9997H11.9997H11.9997H11.9997H11.9997H11.9996H11.9996H11.9996H11.9996H11.9996H11.9996H11.9995H11.9995H11.9995H11.9995H11.9995H11.9995H11.9994H11.9994H11.9994H11.9994H11.9994H11.9993H11.9993H11.9993H11.9993H11.9993H11.9993H11.9992H11.9992H11.9992H11.9992H11.9992H11.9991H11.9991H11.9991H11.9991H11.9991H11.999H11.999H11.999H11.999H11.999H11.9989H11.9989H11.9989H11.9989H11.9989H11.9988H11.9988H11.9988H11.9988H11.9987H11.9987H11.9987H11.9987H11.9987H11.9986H11.9986H11.9986H11.9986H11.9985H11.9985H11.9985H11.9985H11.9984H11.9984H11.9984H11.9984H11.9983H11.9983H11.9983H11.9983H11.9982H11.9982H11.9982H11.9982H11.9981H11.9981H11.9981H11.9981H11.998H11.998H11.998H11.998H11.9979H11.9979H11.9979H11.9979H11.9978H11.9978H11.9978H11.9977H11.9977H11.9977H11.9977H11.9976H11.9976H11.9976H11.9975H11.9975H11.9975H11.9974H11.9974H11.9974H11.9974H11.9973H11.9973H11.9973H11.9972H11.9972H11.9972H11.9971H11.9971H11.9971H11.997H11.997H11.997H11.997H11.9969H11.9969H11.9969H11.9968H11.9968H11.9968H11.9967H11.9967H11.9967H11.9966H11.9966H11.9965H11.9965H11.9965H11.9964H11.9964H11.9964H11.9963H11.9963H11.9963H11.9962H11.9962H11.9962H11.9961H11.9961H11.996H11.996H11.996H11.9959H11.9959H11.9959H11.9958H11.9958H11.9957H11.9957H11.9957H11.9956H11.9956H11.9956H11.9955H11.9955H11.9954H11.9954H11.9954H11.9953H11.9953H11.9952H11.9952H11.9951H11.9951H11.9951H11.995H11.995H11.9949H11.9949H11.9949H11.9948H11.9948H11.9947H11.9947H11.9946H11.9946H11.9946H11.9945H11.9945H11.9944H11.9944H11.9943H11.9943H11.9942H11.9942H11.9941H11.9941H11.9941H11.994H11.994H11.9939H11.9939H11.9938H11.9938H11.9937H11.9937H11.9936H11.9936H11.9935H11.9935H11.9934H11.9934H11.9933H11.9933H11.9932H11.9932H11.9931H11.9931H11.993H11.993H11.9929H11.9929H11.9928H11.9928H11.9927H11.9927H11.9926H11.9926H11.9925H11.9925H11.9924H11.9924H11.9923H11.9923H11.9922H11.9921H11.9921H11.992H11.992H11.9919H11.9919H11.9918H11.9918H11.9917H11.9916H11.9916H11.9915H11.9915H11.9914H11.9914H11.9913H11.9912H11.9912H11.9911H11.9911C8.7202 2.5 5.05649 4.40915 4.10251 8.60585L8.7409 20.1794ZM8.7409 20.1794C5.92255 17.4694 3.02501 13.3587 4.10242 8.60622L8.7409 20.1794Z" fill="#3C8799" stroke="#3C8799" stroke-width="1.5"/>
<path d="M14.4016 10.31C14.4016 11.6355 13.327 12.71 12.0016 12.71C10.6761 12.71 9.60156 11.6355 9.60156 10.31C9.60156 8.98455 10.6761 7.91003 12.0016 7.91003C13.327 7.91003 14.4016 8.98455 14.4016 10.31Z" fill="#3C8799" stroke="#3C8799" stroke-width="1.5"/>
</svg>
