<svg width="24" height="24" viewBox="0 0 24 24" fill="none" xmlns="http://www.w3.org/2000/svg">
<path d="M3.75381 16.2045L3.7527 16.2155L3.75191 16.2266C3.72719 16.5725 3.84802 16.9123 4.07253 17.1617C4.31324 17.4292 4.6604 17.57 5 17.57H12C12.3396 17.57 12.6868 17.4292 12.9275 17.1617C13.1466 16.9183 13.282 16.5689 13.2353 16.1948C13.0383 14.1967 11.4607 12.6179 9.48698 12.376C10.6901 11.9634 11.56 10.8192 11.56 9.48C11.56 7.79579 10.1842 6.42 8.5 6.42C6.81579 6.42 5.44 7.79579 5.44 9.48C5.44 10.8182 6.30862 11.9618 7.5104 12.3751C5.5256 12.6148 3.95622 14.2042 3.75381 16.2045ZM6 3.75H18C19.8007 3.75 21.25 5.19911 21.25 6.97V17.03C21.25 18.8009 19.8007 20.25 18 20.25H6C4.1993 20.25 2.75 18.8009 2.75 17.03V6.97C2.75 5.19911 4.1993 3.75 6 3.75ZM15.5 16C15.5 16.8242 16.1758 17.5 17 17.5H19C19.8242 17.5 20.5 16.8242 20.5 16C20.5 15.1758 19.8242 14.5 19 14.5H17C16.1758 14.5 15.5 15.1758 15.5 16ZM15 13.5H19C19.8242 13.5 20.5 12.8242 20.5 12C20.5 11.1758 19.8242 10.5 19 10.5H15C14.1758 10.5 13.5 11.1758 13.5 12C13.5 12.8242 14.1758 13.5 15 13.5ZM14 9.5H19C19.8242 9.5 20.5 8.82421 20.5 8C20.5 7.17579 19.8242 6.5 19 6.5H14C13.1758 6.5 12.5 7.17579 12.5 8C12.5 8.82421 13.1758 9.5 14 9.5Z" fill="#3C8799" stroke="#3C8799" stroke-width="1.5"/>
</svg>
