<svg width="41" height="40" viewBox="0 0 41 40" fill="none" xmlns="http://www.w3.org/2000/svg">
<path d="M22.3065 8.67953L24.6532 13.3729C24.9732 14.0262 25.8265 14.6529 26.5465 14.7729L30.7999 15.4795C33.5199 15.9329 34.1599 17.9062 32.1999 19.8529L28.8932 23.1595C28.3332 23.7195 28.0265 24.7995 28.1999 25.5729L29.1465 29.6662C29.8932 32.9062 28.1732 34.1595 25.3065 32.4662L21.3199 30.1062C20.5999 29.6795 19.4132 29.6795 18.6799 30.1062L14.6932 32.4662C11.8399 34.1595 10.1065 32.8929 10.8532 29.6662L11.7999 25.5729C11.9732 24.7995 11.6665 23.7195 11.1065 23.1595L7.79988 19.8529C5.85321 17.9062 6.47988 15.9329 9.19988 15.4795L13.4532 14.7729C14.1599 14.6529 15.0132 14.0262 15.3332 13.3729L17.6799 8.67953C18.9599 6.13286 21.0399 6.13286 22.3065 8.67953Z" fill="#3C8799"/>
</svg>
