<svg width="131" height="28" viewBox="0 0 131 28" fill="none" xmlns="http://www.w3.org/2000/svg">
<path d="M24.4232 15.0557L24.4404 15.057L26.2358 15.2447C26.3618 15.2583 26.4776 15.3198 26.5593 15.416L26.5727 15.4323L26.5556 15.4408C26.6395 15.5467 26.6765 15.6823 26.6579 15.8161C26.2657 18.9346 24.7876 21.8153 22.4832 23.9526C20.092 26.1703 16.9512 27.4025 13.6899 27.4025C12.1059 27.405 10.5354 27.1134 9.0583 26.5426L8.97782 26.5112C8.85692 26.4665 8.75978 26.3746 8.70835 26.2571L8.70061 26.2383C8.65025 26.1213 8.64746 25.9896 8.69222 25.871L9.40087 24.1421C9.49689 23.8976 9.76903 23.7745 10.0148 23.8612L10.0311 23.8673C13.6533 25.2659 17.7559 24.4782 20.6025 21.8374C22.4145 20.1725 23.5828 17.9233 23.9031 15.4835C23.9371 15.2315 24.1556 15.0483 24.4061 15.0549L24.4232 15.0557ZM66.8242 7.71807C68.355 7.71807 69.5522 8.18513 70.3168 9.08212L70.3424 9.11252V8.35345C70.3527 8.14158 70.5167 7.97035 70.7261 7.94967L70.7432 7.94832H72.7858C72.996 7.96285 73.1632 8.12827 73.1813 8.33648L73.1825 8.35345V19.6925C73.2485 21.2914 72.7571 22.8635 71.7923 24.1402C70.692 25.4792 69.0204 26.1573 66.8242 26.1573C63.771 26.1573 61.3615 24.2255 60.965 21.4664C60.9453 21.2672 61.0666 21.082 61.2552 21.0196L61.272 21.0144L63.2678 20.5453C63.2781 20.543 63.2886 20.541 63.2991 20.5395C63.5182 20.5074 63.7217 20.6589 63.7539 20.878C63.9361 22.4256 65.2664 23.5803 66.8242 23.5432C69.1842 23.5432 70.2945 22.3437 70.3165 19.837L70.3168 19.7607V18.7671C69.4321 19.7593 68.1528 20.3075 66.8242 20.2639C63.4298 20.2639 60.9693 17.6285 60.9693 14.0037C60.9382 12.3729 61.5124 10.7883 62.5812 9.55598C63.6667 8.3634 65.2118 7.69415 66.8242 7.71807ZM5.3493 21.509L5.37461 21.5088L5.40001 21.509C6.21481 21.5184 6.87085 22.1772 6.87971 22.989L6.87977 23.0144C6.87977 23.0228 6.87967 23.0313 6.87953 23.0397C6.86534 23.871 6.18007 24.5334 5.34882 24.5193C4.51756 24.5051 3.85519 23.8199 3.86923 22.9886C3.88313 22.1743 4.54099 21.522 5.3493 21.509ZM102.183 7.5603L102.287 7.56107C105.936 7.61146 108.197 10.1515 108.197 14.2169C108.197 14.4321 108.186 14.647 108.163 14.8609C108.144 15.0576 107.984 15.2093 107.788 15.2186L107.771 15.2191H99.097C99.1504 17.0408 100.656 18.4822 102.479 18.4557C103.891 18.5445 105.179 17.6463 105.583 16.2895C105.657 16.0947 105.867 15.9899 106.066 16.0458L106.082 16.0507L107.813 16.6605C107.909 16.6912 107.987 16.7591 108.031 16.8482L108.039 16.8652C108.087 16.9591 108.095 17.0682 108.061 17.1679C107.257 19.5489 104.991 21.1243 102.479 21.0485C100.832 21.0649 99.2469 20.4215 98.0781 19.2617C96.8018 17.9192 96.1208 16.1191 96.1889 14.2681C96.1889 10.1098 99.1775 7.61062 102.096 7.56106L102.183 7.5603ZM53.1014 7.5603H53.1057C56.82 7.5603 59.1271 10.1104 59.1271 14.2169C59.1268 14.4321 59.1153 14.647 59.0929 14.8609C59.0757 15.0586 58.9137 15.2114 58.717 15.2188L58.7006 15.2191H50.0268C50.0803 17.0458 51.594 18.4893 53.4213 18.4558C54.8347 18.5461 56.1228 17.6473 56.5258 16.2895C56.598 16.0931 56.8096 15.9876 57.0086 16.0456L57.0247 16.0507L58.756 16.6605C58.8572 16.6932 58.9395 16.7677 58.982 16.8652C59.0225 16.962 59.0225 17.0711 58.982 17.1679C58.1785 19.5474 55.9146 21.1224 53.4042 21.0485C51.7545 21.0672 50.1662 20.4236 48.9948 19.2617C47.7205 17.9181 47.0398 16.1188 47.1057 14.2681C47.1057 10.0678 50.1547 7.5603 53.1014 7.5603ZM39.9671 7.55599C41.6345 7.55599 42.982 7.96112 43.9799 8.75851C44.6546 9.29625 45.1547 10.0219 45.417 10.8439L45.4178 10.8472C45.452 10.9889 45.3688 11.1316 45.2306 11.1727L45.2166 11.1764L43.1483 11.8588C43.0566 11.8951 42.9544 11.8951 42.8627 11.8588C42.7843 11.8222 42.7254 11.7539 42.7006 11.6712L42.6896 11.6305C42.5012 10.957 41.8853 9.87583 39.9671 9.87583C38.6025 9.87583 37.7838 10.6605 37.7838 11.4196L37.7841 11.4496C37.7943 11.9432 38.0627 12.5627 39.2396 12.7983L39.2763 12.8054L41.5535 13.2319C44.0696 13.7385 45.52 15.1061 45.5487 17.0119L45.5492 17.0698L45.5407 17.0358L45.5401 17.0936C45.5035 19.0041 43.6556 21.0144 40.2528 21.0144C36.2656 21.0144 34.7006 18.7585 34.4106 17.4281C34.3917 17.2889 34.4766 17.1574 34.6094 17.1165L34.6238 17.1125L36.756 16.4473C36.7942 16.441 36.8331 16.441 36.8712 16.4473C36.9254 16.4463 36.979 16.4578 37.0279 16.4807L37.046 16.4899C37.1243 16.5274 37.1821 16.5977 37.2037 16.6817C37.4725 17.9611 38.6281 18.7245 40.2912 18.7245C41.8392 18.7245 42.5428 17.9142 42.5428 17.1807C42.5428 16.4553 41.9296 15.9176 40.8725 15.6955L40.8371 15.6882L38.4447 15.2234C36.2144 14.8012 34.8243 13.4152 34.8243 11.6114C34.8243 9.41525 37.1825 7.55599 39.9671 7.55599ZM125.971 4.00378H127.835C128.055 4.01699 128.227 4.19532 128.236 4.41375L128.236 4.4302V7.93128H130.478C130.697 7.94661 130.867 8.12416 130.875 8.34095L130.876 8.3577V10.217L130.876 10.2332C130.869 10.4416 130.704 10.6109 130.495 10.6216L130.478 10.6221H128.236V16.8438C128.236 17.8758 128.645 18.3023 129.698 18.3023C129.911 18.2986 130.125 18.2824 130.336 18.2538L130.415 18.2425C130.531 18.2228 130.65 18.2557 130.739 18.3321C130.819 18.4068 130.868 18.5095 130.875 18.6186L130.876 18.6392V20.3918C130.877 20.5704 130.761 20.7286 130.59 20.7799C130.099 20.9174 129.591 20.9864 129.082 20.9852L129.012 20.9845C126.787 20.9845 125.398 19.5677 125.371 17.276L125.37 17.2063V10.6477H123.43C123.218 10.6352 123.048 10.4692 123.03 10.2596L123.029 10.2426V8.37474C123.028 8.15439 123.196 7.971 123.413 7.94962L123.43 7.94832L123.951 7.94826L124.007 7.94727C124.616 7.92978 125.551 7.68298 125.57 6.32373L125.571 6.28091V4.4302C125.57 4.20985 125.738 4.02646 125.955 4.00508L125.971 4.00378ZM89.7518 7.55841L89.8007 7.5603H89.7963C91.9918 7.5603 94.208 9.08995 94.2521 12.4307L94.2528 12.5325V20.4302C94.2428 20.6421 94.0782 20.8132 93.869 20.834L93.852 20.8353H91.8091C91.5976 20.8228 91.4284 20.6569 91.4095 20.4473L91.4083 20.4302V12.7884L91.408 12.7296C91.3955 11.7559 91.0646 10.1914 89.059 10.1914C87.5768 10.1914 86.5211 11.3449 86.5001 13.0231L86.4998 13.0741V20.4302C86.4898 20.6421 86.3259 20.8132 86.1161 20.834L86.099 20.8353H84.0312C83.819 20.8228 83.6498 20.6569 83.6316 20.4473L83.6304 20.4302V12.7884L83.6301 12.7296C83.6176 11.7559 83.2867 10.1914 81.2804 10.1914C79.7395 10.1914 78.6961 11.3366 78.6754 13.0477L78.6751 13.0997V20.4302C78.6644 20.6421 78.5005 20.8132 78.2913 20.834L78.2743 20.8353H76.2314C76.0213 20.8208 75.8542 20.6553 75.8361 20.4472L75.835 20.4302V8.32786C75.8449 8.11748 76.0068 7.94684 76.2145 7.92423L76.2314 7.92272H78.1975C78.409 7.93519 78.5789 8.10117 78.5971 8.31077L78.5983 8.32786V9.05708C79.4826 8.08751 80.7399 7.54275 82.052 7.5603C83.5719 7.51576 84.9901 8.3193 85.7325 9.6455C86.6167 8.29462 88.1409 7.50431 89.7518 7.55841ZM120.338 9.06556C121.121 10.0965 121.524 11.3646 121.483 12.657L121.481 12.7116V20.4302C121.471 20.6406 121.309 20.8112 121.101 20.8338L121.084 20.8353H119.016C118.804 20.8228 118.635 20.6569 118.616 20.4473L118.615 20.4302V13.1253C118.615 11.2148 117.715 10.2426 116.01 10.2426C115.256 10.2182 114.536 10.5539 114.069 11.1466C113.618 11.7972 113.385 12.5737 113.403 13.3645L113.404 13.411V20.4302C113.394 20.6421 113.23 20.8132 113.02 20.834L113.003 20.8353H110.939C110.728 20.8228 110.558 20.6569 110.54 20.4473L110.539 20.4302V8.3193C110.549 8.10743 110.713 7.93626 110.922 7.91551L110.939 7.91417H112.957C113.167 7.92869 113.334 8.09418 113.352 8.30233L113.353 8.3193V9.1722C114.218 8.12394 115.517 7.52995 116.876 7.5603C118.199 7.50369 119.476 8.05877 120.338 9.06556ZM1.481 15.5731H16.1633C16.4331 15.5754 16.6511 15.7914 16.6579 16.0591L16.658 16.0763V17.9143C16.6603 18.184 16.4479 18.4057 16.1804 18.417L16.1633 18.4174H1.481C1.21115 18.4151 0.993255 18.199 0.986328 17.9313V17.9142V16.0762V16.0591C0.99311 15.7972 1.20184 15.5848 1.46348 15.5735L1.481 15.5731ZM67.1782 10.2682C65.1654 10.2682 63.8861 11.701 63.8861 14.0037C63.8861 16.3065 65.1483 17.7351 67.1782 17.7351C69.1142 17.7351 70.4191 16.234 70.4191 14.0037C70.4191 11.7692 69.1142 10.2682 67.1782 10.2682ZM50.1176 12.7597L50.1121 12.8054H56.1803C56.0326 11.1843 54.8901 10.1734 53.179 10.1533L53.127 10.153C51.6193 10.1285 50.3354 11.2312 50.1237 12.7146L50.1176 12.7597ZM99.2049 12.7597L99.1994 12.8054H105.268C105.12 11.1843 103.978 10.1734 102.266 10.1533L102.214 10.153C100.707 10.1285 99.4226 11.2312 99.211 12.7146L99.2049 12.7597ZM18.0012 1.54746C18.1284 1.59332 18.2314 1.6887 18.2869 1.81187C18.3379 1.93621 18.3379 2.07562 18.2869 2.19989L17.6473 3.9057C17.5587 4.15863 17.2821 4.29211 17.029 4.20419C13.6779 3.0348 9.95953 3.69922 7.22088 5.95682C5.51412 7.38542 4.30223 9.31673 3.7582 11.4749C3.70188 11.6929 3.50564 11.8453 3.28059 11.846H3.1697L1.41276 11.4238C1.28177 11.393 1.16927 11.3097 1.10147 11.1935H1.09291C1.02182 11.0773 1.00178 10.937 1.03755 10.8055C1.73525 8.04275 3.29638 5.5748 5.49378 3.76066C8.98791 0.884067 13.7322 0.0445449 18.0012 1.54746ZM11.4981 8.91635H26.1803C26.4435 8.9185 26.6586 9.12434 26.6743 9.385L26.675 9.40245V11.2404C26.6773 11.5103 26.4651 11.7319 26.1975 11.7432L26.1803 11.7437H11.4981C11.23 11.7391 11.0146 11.5238 11.0078 11.2578L11.0076 11.2404V9.4195C11.0053 9.15141 11.2149 8.93061 11.4807 8.91695L11.4981 8.91635ZM21.6904 3.30862L21.7157 3.30842L21.7411 3.30864C22.5559 3.31798 23.212 3.97682 23.2208 4.78856L23.2209 4.81398C23.2209 4.82246 23.2208 4.83095 23.2206 4.83936C23.2065 5.67061 22.5212 6.33298 21.6899 6.31887C20.8587 6.30475 20.1963 5.61941 20.2104 4.78823C20.2243 3.97387 20.8822 3.32163 21.6904 3.30862Z" fill="#4FB58B"/>
</svg>
