<svg width="111" height="32" viewBox="0 0 111 32" fill="none" xmlns="http://www.w3.org/2000/svg">
<path d="M110.829 8.8205H105.962L102.551 17.6149L99.1576 8.8205H94.291L100.207 22.7172L96.5276 31.905H101.359L110.829 8.8205ZM81.2316 16.55C81.2316 18.7702 83.1722 20.2312 85.0786 20.2312C86.952 20.2312 88.7926 18.8716 88.7926 16.5487C88.7926 14.2257 86.952 12.8648 85.0786 12.8648C83.1722 12.8648 81.2316 14.3271 81.2316 16.5487V16.55ZM88.7926 24.3097V22.5514C87.8058 24.0452 85.5034 24.6099 84.3221 24.6099C80.4107 24.6099 76.498 21.5263 76.498 16.5487C76.498 11.5724 80.4093 8.48884 84.3221 8.48884C85.3074 8.48884 87.6099 8.81776 88.7926 10.5446V8.82598H93.3289V24.3125L88.7926 24.3111V24.3097ZM75.207 24.3097H70.6707V22.3856C69.9128 23.8109 68.075 24.6414 66.1672 24.6414C62.2216 24.6414 58.7365 21.4906 58.7365 16.6117C58.7365 11.641 62.2216 8.4861 66.1672 8.4861C68.0722 8.4861 69.9155 9.28098 70.6707 10.7077V0.383789H75.207V24.3097ZM70.572 16.5144C70.572 14.1928 68.8959 12.8319 67.0224 12.8319C65.0818 12.8319 63.4701 14.2915 63.4701 16.5144C63.4701 18.8086 65.0818 20.2613 67.021 20.2613C68.9301 20.2641 70.572 18.7373 70.572 16.5144ZM47.5204 16.1142C47.5204 13.7597 48.7374 12.9635 50.3477 12.9635C51.8923 12.9635 53.0106 13.9913 53.0106 16.0471V24.307H57.5798V15.0535C57.5798 10.6432 55.4089 8.4861 51.9567 8.4861C50.149 8.4861 48.3413 9.51396 47.519 11.0736V8.8205H42.9526V24.307H47.5204V16.1142ZM33.6744 24.5729C29.3354 24.5729 25.716 21.3892 25.716 16.513C25.716 11.6341 29.3313 8.48199 33.6744 8.48199C38.0175 8.48199 41.6643 11.6341 41.6643 16.513C41.6643 21.392 38.0134 24.5742 33.6744 24.5742V24.5729ZM33.6744 20.064C35.5794 20.064 37.1595 18.6688 37.1595 16.5144C37.1595 14.4244 35.5808 12.9977 33.6744 12.9977C32.7468 12.9832 31.8539 13.3504 31.2048 14.0133C30.5521 14.6795 30.1975 15.582 30.2222 16.5144C30.2235 18.6715 31.801 20.064 33.6744 20.064ZM17.5246 12.9648C18.8718 12.9648 20.0559 14.027 20.0559 16.0484V24.3097H24.5922V15.5139C24.5922 10.8379 22.3186 8.48336 18.6744 8.48336C17.5918 8.48336 15.5525 8.81227 14.0723 11.2353C13.2172 9.44407 11.574 8.51488 9.14545 8.51488C7.42341 8.50612 5.8553 9.50508 5.13542 11.0695V8.82187H0.563477V24.3084H5.13131V16.1142C5.13131 13.7597 6.41408 12.9635 7.79416 12.9635C9.10983 12.9635 10.2912 13.9913 10.3254 15.9484V24.3084H14.8946V16.1142C14.8946 13.8625 16.0787 12.9662 17.5246 12.9662V12.9648Z" fill="#333333"/>
</svg>
