<svg width="174" height="28" viewBox="0 0 174 28" fill="none" xmlns="http://www.w3.org/2000/svg">
<path d="M164.719 12.5319V16.1428H167.257V19.7253C167.263 19.9997 167.251 20.2926 167.213 20.5446L167.192 20.667C167.188 20.6942 167.183 20.7223 167.177 20.751L167.156 20.8391C167.152 20.8541 167.148 20.8692 167.144 20.8845L167.114 20.9774C166.886 21.6371 166.199 22.473 164.655 22.473C163.011 22.473 162.351 21.5134 162.17 20.8391L162.149 20.751L162.133 20.667C162.088 20.3907 162.068 20.0455 162.068 19.7253V8.40987C162.068 8.05409 162.09 7.66842 162.154 7.35423L162.197 7.1633C162.201 7.15008 162.204 7.13664 162.208 7.123L162.232 7.03891C162.236 7.02454 162.241 7.01 162.245 6.99531L162.277 6.90542C162.512 6.28023 163.132 5.44757 164.642 5.44757C165.807 5.44757 166.434 5.9224 166.77 6.41315L166.829 6.50525C166.848 6.53593 166.866 6.56657 166.882 6.59704L166.929 6.68786L166.97 6.77704L167.006 6.8639L167.037 6.94778L167.063 7.02799L167.085 7.10387L167.102 7.17475L167.117 7.23996C167.123 7.27238 167.129 7.30681 167.134 7.3426L167.149 7.45343C167.151 7.47238 167.154 7.4915 167.156 7.51074L167.171 7.68454L167.181 7.85122L167.19 8.07849L167.192 8.19496V9.56898H173.427L173.428 8.71365L173.432 8.40775L173.431 8.17063L173.426 7.89454L173.421 7.74589L173.41 7.51421L173.394 7.27687L173.38 7.1182C172.958 2.93826 169.816 1.33006 165.993 1.05022L165.738 1.03351L165.48 1.02067C165.351 1.01519 165.221 1.01113 165.09 1.00844L164.828 1.00487C164.784 1.00443 164.741 1.00443 164.697 1.00443L164.434 1.00622C164.39 1.00682 164.346 1.00757 164.303 1.00848L164.043 1.01576L163.784 1.0268L163.527 1.04168L163.273 1.06048C163.189 1.06741 163.104 1.075 163.021 1.08328L162.771 1.11015C162.729 1.11498 162.688 1.11997 162.647 1.12515L162.401 1.15829C161.83 1.24059 161.28 1.35782 160.759 1.51457L160.538 1.58418C158.122 2.37678 156.366 4.06193 156.006 7.1182L155.969 7.45745L155.943 7.72013L155.919 7.99552L155.899 8.2695C155.888 8.44854 155.881 8.61722 155.881 8.75671L155.882 19.2993L155.883 19.4302L155.889 19.629L155.895 19.7685L155.903 19.9174L155.915 20.0793L155.929 20.2577L155.956 20.5638L155.98 20.7986C156.33 24.6828 159.274 26.4107 162.876 26.8184L163.128 26.8447C163.551 26.8851 163.981 26.9078 164.417 26.9142L164.679 26.9162L164.943 26.9142C165.381 26.9078 165.814 26.8851 166.238 26.8447L166.491 26.8184C170.105 26.4107 173.03 24.6828 173.386 20.7986L173.415 20.456L173.436 20.1662L173.455 19.8415L173.467 19.5618L173.477 19.1658V12.5319H164.719ZM121.726 1.67045H115.465V19.9863C115.474 20.3055 115.465 20.6641 115.41 20.927L115.391 21.0067L115.368 21.0916C115.36 21.1206 115.351 21.1504 115.341 21.1808L115.308 21.2737C115.072 21.9034 114.47 22.7251 113.03 22.7251C111.68 22.7251 111.064 21.9835 110.806 21.3695L110.768 21.2737C110.762 21.258 110.756 21.2423 110.751 21.2269L110.722 21.1357L110.697 21.0485C110.693 21.0344 110.69 21.0204 110.687 21.0067L110.669 20.927C110.607 20.6641 110.599 20.3055 110.607 19.9863V1.67045H104.347V19.4179L104.346 19.5606L104.348 19.8101L104.357 20.1772L104.374 20.6233L104.386 20.8479L104.394 20.9671L104.402 21.0548C104.709 24.3383 106.635 26.0475 109.356 26.7626L109.587 26.8207C110.094 26.9415 110.626 27.0295 111.178 27.0883L111.435 27.1133L111.694 27.1343L111.957 27.1513C112.088 27.1589 112.221 27.1649 112.355 27.1695L112.623 27.1769L112.894 27.1805C112.939 27.181 112.985 27.181 113.03 27.181L113.303 27.1792C113.348 27.1786 113.393 27.1778 113.438 27.1769L113.707 27.1695C113.841 27.1649 113.974 27.1589 114.106 27.1513L114.369 27.1343L114.628 27.1133L114.885 27.0883C118.548 26.6994 121.295 25.032 121.673 21.0548L121.678 21.0153L121.688 20.9111L121.703 20.7033L121.717 20.4518L121.724 20.27L121.732 19.9912L121.734 19.8101L121.734 19.6398L121.729 19.4864C121.729 19.4625 121.727 19.4397 121.726 19.4179V1.67045ZM64.1936 1.67045L61.0701 21.0237L57.9485 1.67045H47.8481L47.3124 26.4288H53.5003L53.6678 3.50926L57.9253 26.4288H64.2034L68.4647 3.50926L68.6329 26.4288H74.8363L74.2825 1.67045H64.1936ZM26.7973 1.67045L22.2111 26.4288H28.899L32.355 3.50926L35.728 26.4288H42.3695L37.8024 1.67045H26.7973ZM143.609 21.6039L137.779 1.67045H128.591V26.1707H134.669L134.316 5.59953L140.578 26.1707H149.389V1.67045H143.272L143.609 21.6039ZM87.3903 8.1139C87.2803 7.62495 87.3121 7.10548 87.369 6.83398C87.3851 6.76193 87.4042 6.68929 87.4266 6.61675L87.463 6.50812C87.71 5.82175 88.2878 5.17702 89.6129 5.17702C91.0428 5.17702 91.8812 6.06845 91.8812 7.40622V8.92012H97.9851V7.19449C97.9851 3.30026 95.4364 1.80224 92.7131 1.2772L92.4889 1.23621L92.2642 1.19942L92.0393 1.16666L91.8145 1.13776L91.5902 1.11254L91.3664 1.09083C91.292 1.08415 91.2177 1.07803 91.1437 1.07244L90.9222 1.0572L90.7023 1.04494L90.4842 1.03549L90.2682 1.02866L90.0548 1.02427L89.7397 1.02191L89.6008 1.0224L89.3247 1.02634C89.2788 1.02733 89.2331 1.02849 89.1875 1.02981L88.9149 1.03978C88.8245 1.04378 88.7345 1.04847 88.6449 1.05385L88.3776 1.07209C84.6538 1.35694 81.7478 2.88653 81.1666 6.47347C80.9946 7.56582 80.952 8.53545 81.2257 9.77276C81.6566 11.806 83.3504 13.2529 85.2947 14.4664L85.5956 14.6513C85.6461 14.6818 85.6966 14.7122 85.7473 14.7425L86.0527 14.9224L86.3599 15.0994L86.6683 15.2736L87.1311 15.5306L88.347 16.197L88.6424 16.3608L88.9328 16.5241L89.2172 16.6871L89.495 16.8501C90.8202 17.6388 91.8819 18.4386 92.2639 19.3947C92.4754 19.9627 92.4291 20.6788 92.3269 21.1357L92.3094 21.2093C92.2841 21.3192 92.2524 21.4291 92.2124 21.5371L92.1697 21.6444C91.8885 22.3014 91.2738 22.8615 89.9231 22.8615C88.3825 22.8615 87.4552 21.9758 87.4552 20.6409L87.4533 18.2648H80.8833V20.1535C80.8833 24.5866 83.6958 26.5122 87.2183 27.0839L87.4805 27.1238C87.6561 27.1488 87.8333 27.1705 88.0119 27.1891L88.2807 27.2148C88.5955 27.2421 88.914 27.2601 89.2349 27.2696L89.5105 27.2756C89.5565 27.2763 89.6026 27.2768 89.6487 27.2771L89.7871 27.2776C89.8792 27.2776 89.971 27.277 90.0624 27.2757L90.3356 27.2697C90.381 27.2684 90.4262 27.2669 90.4714 27.2652L90.7412 27.2531C90.8307 27.2484 90.9198 27.243 91.0085 27.2369L91.2733 27.2165C91.449 27.2015 91.6228 27.1836 91.7947 27.1629L92.051 27.1295L92.3043 27.0917C92.3882 27.0784 92.4716 27.0643 92.5544 27.0495L92.8012 27.0027C95.7829 26.4052 98.0015 24.7853 98.447 21.6706C98.5084 21.2061 98.5461 20.7771 98.5664 20.3849L98.5774 20.1289C98.5789 20.0872 98.5801 20.0459 98.5812 20.005L98.5852 19.7656V19.5373L98.5814 19.3202L98.5743 19.1144L98.5644 18.9199C98.5625 18.8885 98.5605 18.8575 98.5584 18.827L98.5449 18.6498L98.5294 18.4842L98.5126 18.3303L98.4854 18.1215L98.4572 17.9394L98.4205 17.7388L98.4035 17.6567C97.9735 15.5007 96.086 13.9778 93.989 12.7243L93.6882 12.547L93.3853 12.3731L93.0812 12.2025L92.6244 11.952L92.0187 11.6269L90.9857 11.0775L90.5606 10.8475C90.5141 10.8221 90.4679 10.7967 90.422 10.7713L90.15 10.6196L89.8857 10.4686C88.5846 9.71419 87.6012 8.9735 87.3903 8.1139ZM6.8718 8.05317C6.75943 7.58525 6.777 7.09301 6.83464 6.80698L6.85851 6.69989L6.88559 6.59392C7.09179 5.85048 7.65558 5.08419 9.11276 5.08419C10.5608 5.08419 11.4135 5.9842 11.4135 7.33279V8.86512H17.5889V7.12582C17.5889 3.40966 15.2771 1.84898 12.6938 1.23848L12.4685 1.18776C12.2803 1.14744 12.091 1.11193 11.9013 1.08076L11.6736 1.04542L11.4459 1.01407L11.2184 0.986544L10.9915 0.962664C10.916 0.955292 10.8406 0.948498 10.7655 0.942253L10.5406 0.925135L10.3172 0.911134L10.0956 0.900073L9.876 0.891777L9.65878 0.886069L9.33803 0.881714H9.23261C9.14003 0.881714 9.0478 0.882361 8.95595 0.883665L8.68155 0.889562C8.4994 0.894822 8.31883 0.902754 8.14 0.913442L7.87309 0.931551C7.82883 0.934917 7.78469 0.938458 7.74066 0.942175L7.4779 0.966603C7.39079 0.975457 7.30416 0.985026 7.21805 0.995321L6.96124 1.02839C6.74852 1.05778 6.53909 1.09178 6.33326 1.13053L6.088 1.17934L5.84632 1.23278L5.60833 1.29092C5.52962 1.31109 5.45156 1.33206 5.37414 1.35383L5.14389 1.42156C2.74726 2.15827 1.02012 3.70338 0.584131 6.38445C0.404192 7.49429 0.373355 8.47059 0.633407 9.72158C1.09124 11.8834 2.95851 13.3889 5.04755 14.6539L5.3547 14.8373C5.40611 14.8677 5.45762 14.8978 5.50921 14.9279L5.81957 15.1067L6.2869 15.37L6.90903 15.7132L7.82669 16.2161L8.27247 16.4642L8.70584 16.7115L8.98647 16.8763C9.03263 16.9038 9.07848 16.9313 9.124 16.9589L9.39294 17.1243C10.5398 17.8426 11.4381 18.5825 11.7848 19.45C12.0119 20.0141 11.9588 20.73 11.8515 21.2017L11.8331 21.278C11.8066 21.3866 11.7741 21.4953 11.7339 21.6022L11.691 21.7085C11.4025 22.3771 10.7834 22.9505 9.41509 22.9505C7.86845 22.9505 6.94333 22.0496 6.94333 20.6962L6.93474 18.3138H0.291016V20.207C0.291016 25.521 4.29762 27.2677 8.73479 27.3989L9.01265 27.405L9.29142 27.407L9.56709 27.4051C9.70439 27.4031 9.84088 27.3997 9.97649 27.3947L10.2465 27.3828C10.3809 27.3758 10.5144 27.3673 10.6469 27.3572L10.9106 27.335L11.1715 27.3085C11.258 27.2989 11.344 27.2887 11.4295 27.2777L11.6846 27.2426C11.7691 27.2301 11.8531 27.2169 11.9365 27.203L12.1852 27.159C15.2729 26.5808 17.5742 24.9429 18.0375 21.7393C18.1013 21.2816 18.1412 20.8582 18.1635 20.4702L18.1758 20.2168L18.1834 19.9739C18.1851 19.8948 18.1861 19.8173 18.1865 19.7417L18.1857 19.5202L18.1813 19.3095L18.1738 19.1097L18.1637 18.9208L18.1512 18.7429L18.1368 18.5761L18.1126 18.3469L18.0866 18.1431L18.0515 17.9113L18.0114 17.6865C17.583 15.5561 15.7518 14.0404 13.6915 12.7938L13.3885 12.6132C13.3378 12.5834 13.287 12.5538 13.236 12.5243L12.9297 12.349L12.6221 12.177L12.3141 12.008L12.0065 11.8418L10.6492 11.1214L10.2152 10.8887L9.93333 10.7351L9.65842 10.5822L9.39128 10.4299C9.34745 10.4046 9.30397 10.3793 9.26087 10.354L9.00691 10.2021C7.88553 9.51906 7.0621 8.83566 6.8718 8.05317Z" fill="#1428A0"/>
</svg>
