<svg width="32" height="32" viewBox="0 0 32 32" fill="none" xmlns="http://www.w3.org/2000/svg">
<path d="M28.3193 10.4106V10.4134V21.5867C28.3193 23.8145 27.6592 25.4727 26.5589 26.5729C25.4587 27.6732 23.8005 28.3334 21.5727 28.3334H10.4127C8.18491 28.3334 6.52702 27.6732 5.4269 26.5717C4.32663 25.47 3.66602 23.8085 3.66602 21.5734V10.4134C3.66602 8.18556 4.32621 6.52738 5.42646 5.42713C6.52671 4.32688 8.18489 3.66669 10.4127 3.66669H21.586C23.814 3.66669 25.4718 4.32696 26.5701 5.42668C27.6683 6.5262 28.3255 8.18345 28.3193 10.4106ZM14.8393 11.0134C14.8393 9.07095 13.2548 7.50669 11.3327 7.50669C9.41401 7.50669 7.82602 9.06748 7.82602 11C7.82602 12.9153 9.38342 14.52 11.3327 14.52C13.2716 14.52 14.8393 12.9523 14.8393 11.0134ZM8.49268 18.9334C8.49268 23.0723 11.8604 26.44 15.9993 26.44C20.1358 26.44 23.5084 23.0739 23.4793 18.9292C23.4771 17.4373 22.2753 16.2267 20.786 16.2267H11.186C9.69023 16.2267 8.49268 17.458 8.49268 18.9334ZM17.1593 10.9867C17.1593 12.9291 18.7439 14.4934 20.666 14.4934C22.5882 14.4934 24.1727 12.9291 24.1727 10.9867C24.1727 9.04774 22.605 7.48002 20.666 7.48002C18.7271 7.48002 17.1593 9.04774 17.1593 10.9867Z" fill="#3C8799" stroke="#3C8799" stroke-width="2"/>
</svg>
