<svg width="91" height="18" viewBox="0 0 91 18" fill="none" xmlns="http://www.w3.org/2000/svg">
<path d="M8.35846 1.96352C8.50813 1.50287 9.15984 1.50287 9.30951 1.96353L10.6301 6.02786C10.697 6.23388 10.889 6.37336 11.1056 6.37336L15.3791 6.37336C15.8635 6.37336 16.0649 6.99316 15.673 7.27786L12.2157 9.78976C12.0404 9.91709 11.9671 10.1428 12.034 10.3488L13.3546 14.4131C13.5043 14.8738 12.9771 15.2568 12.5852 14.9721L9.12788 12.4602C8.95263 12.3329 8.71534 12.3329 8.54009 12.4602L5.08276 14.9721C4.6909 15.2568 4.16366 14.8738 4.31334 14.4131L5.63392 10.3488C5.70086 10.1428 5.62753 9.91709 5.45229 9.78976L1.99495 7.27786C1.6031 6.99316 1.80448 6.37336 2.28885 6.37336L6.56234 6.37336C6.77896 6.37336 6.97094 6.23388 7.03787 6.02786L8.35846 1.96352Z" fill="#FDAF3B"/>
<path d="M26.7745 1.96352C26.9241 1.50287 27.5759 1.50287 27.7255 1.96353L29.0461 6.02786C29.113 6.23388 29.305 6.37336 29.5216 6.37336L33.7951 6.37336C34.2795 6.37336 34.4809 6.99316 34.089 7.27786L30.6317 9.78976C30.4565 9.91709 30.3831 10.1428 30.4501 10.3488L31.7706 14.4131C31.9203 14.8738 31.3931 15.2568 31.0012 14.9721L27.5439 12.4602C27.3686 12.3329 27.1314 12.3329 26.9561 12.4602L23.4988 14.9721C23.1069 15.2568 22.5797 14.8738 22.7294 14.4131L24.0499 10.3488C24.1169 10.1428 24.0435 9.91709 23.8683 9.78976L20.411 7.27786C20.0191 6.99316 20.2205 6.37336 20.7049 6.37336L24.9784 6.37336C25.195 6.37336 25.387 6.23388 25.4539 6.02786L26.7745 1.96352Z" fill="#FDAF3B"/>
<path d="M45.1924 1.96352C45.3421 1.50287 45.9938 1.50287 46.1435 1.96353L47.4641 6.02786C47.531 6.23388 47.723 6.37336 47.9396 6.37336L52.2131 6.37336C52.6975 6.37336 52.8989 6.99316 52.507 7.27786L49.0497 9.78976C48.8744 9.91709 48.8011 10.1428 48.868 10.3488L50.1886 14.4131C50.3383 14.8738 49.8111 15.2568 49.4192 14.9721L45.9619 12.4602C45.7866 12.3329 45.5493 12.3329 45.3741 12.4602L41.9167 14.9721C41.5249 15.2568 40.9976 14.8738 41.1473 14.4131L42.4679 10.3488C42.5348 10.1428 42.4615 9.91709 42.2863 9.78976L38.8289 7.27786C38.4371 6.99316 38.6385 6.37336 39.1228 6.37336L43.3963 6.37336C43.6129 6.37336 43.8049 6.23388 43.8719 6.02786L45.1924 1.96352Z" fill="#FDAF3B"/>
<path d="M63.6085 1.96352C63.7581 1.50287 64.4098 1.50287 64.5595 1.96353L65.8801 6.02786C65.947 6.23388 66.139 6.37336 66.3556 6.37336L70.6291 6.37336C71.1135 6.37336 71.3149 6.99316 70.923 7.27786L67.4657 9.78976C67.2904 9.91709 67.2171 10.1428 67.284 10.3488L68.6046 14.4131C68.7543 14.8738 68.2271 15.2568 67.8352 14.9721L64.3779 12.4602C64.2026 12.3329 63.9653 12.3329 63.7901 12.4602L60.3328 14.9721C59.9409 15.2568 59.4137 14.8738 59.5633 14.4131L60.8839 10.3488C60.9509 10.1428 60.8775 9.91709 60.7023 9.78976L57.245 7.27786C56.8531 6.99316 57.0545 6.37336 57.5388 6.37336L61.8123 6.37336C62.029 6.37336 62.2209 6.23388 62.2879 6.02786L63.6085 1.96352Z" fill="#FDAF3B"/>
<path d="M82.0245 1.96352C82.1741 1.50287 82.8259 1.50287 82.9755 1.96353L84.2961 6.02786C84.363 6.23388 84.555 6.37336 84.7716 6.37336L89.0451 6.37336C89.5295 6.37336 89.7309 6.99316 89.339 7.27786L85.8817 9.78976C85.7065 9.91709 85.6331 10.1428 85.7001 10.3488L87.0206 14.4131C87.1703 14.8738 86.6431 15.2568 86.2512 14.9721L82.7939 12.4602C82.6186 12.3329 82.3814 12.3329 82.2061 12.4602L78.7488 14.9721C78.3569 15.2568 77.8297 14.8738 77.9794 14.4131L79.2999 10.3488C79.3669 10.1428 79.2935 9.91709 79.1183 9.78976L75.661 7.27786C75.2691 6.99316 75.4705 6.37336 75.9549 6.37336L80.2284 6.37336C80.445 6.37336 80.637 6.23388 80.7039 6.02786L82.0245 1.96352Z" fill="#FDAF3B"/>
</svg>
