<svg width="24" height="24" viewBox="0 0 24 24" fill="none" xmlns="http://www.w3.org/2000/svg">
<path d="M20.9955 5.97633L20.9986 5.97662C21.0008 5.97683 21.0019 5.97716 21.0023 5.97727L21.0032 5.97762C21.0036 5.97784 21.0047 5.97851 21.0061 5.98H21.006H21.0059H21.0057H21.0055H21.0053H21.0052H21.005H21.0048H21.0047H21.0045H21.0043H21.0042H21.004H21.0038H21.0037H21.0035H21.0033H21.0031H21.003H21.0028H21.0026H21.0025H21.0023H21.0021H21.002H21.0018H21.0016H21.0015H21.0013H21.0011H21.001H21.0008H21.0007H21.0005H21.0003H21.0002H21H20.9998H20.9997H20.9995H20.9993H20.9992H20.999H20.9988H20.9987H20.9985H20.9984H20.9982H20.998H20.9979H20.9977H20.9976H20.9974H20.9972H20.9971H20.9969H20.9967H20.9966H20.9964H20.9963H20.9961H20.9959H20.9958H20.9956H20.9955H20.9953H20.9951H20.995H20.9948H20.9947H20.9945H20.9944H20.9942H20.994H20.9939H20.9937H20.9936H20.9934H20.9932H20.9931H20.9929H20.9928H20.9926H20.9925H20.9923H20.9921H20.992H20.9918H20.9917H20.9915H20.9914H20.9912H20.9911H20.9909H20.9907H20.9906H20.9904H20.9903H20.9901H20.99H20.9898H20.9897H20.9895H20.9893H20.9892H20.989H20.9889H20.9887H20.9886H20.9884H20.9883H20.9881H20.988H20.9878H20.9877H20.9875H20.9874H20.9872H20.987H20.9869H20.9867H20.9866H20.9864H20.9863H20.9861H20.986H20.9858H20.9857H20.9855H20.9854H20.9852H20.9851H20.9849H20.9848H20.9846H20.9845H20.9843H20.9842H20.984H20.9839H20.9837H20.9836H20.9834H20.9833H20.9831H20.983H20.9828H20.9827H20.9825H20.9824H20.9822H20.9821H20.9819H20.9818H20.9816H20.9815H20.9813H20.9812H20.981H20.9809H20.9807H20.9806H20.9804H20.9803H20.9801H20.98H20.9798H20.9797H20.9795H20.9794H20.9792H20.9791H20.9789H20.9788H20.9786H20.9785H20.9783H20.9782H20.978H20.9779H20.9778H20.9776H20.9775H20.9773H20.9772H20.977H20.9769H20.9767H20.9766H20.9764H20.9763H20.9761H20.976H20.9758H20.9757H20.9755H20.9754H20.9752H20.9751H20.975H20.9748H20.9747H20.9745H20.9744H20.9742H20.9741H20.9739H20.9738H20.9736H20.9735H20.9733H20.9732H20.973H20.9729H20.9727H20.9726H20.9725H20.9723H20.9722H20.972H20.9719H20.9717H20.9716H20.9714H20.9713H20.9711H20.971H20.9708H20.9707H20.9705H20.9704H20.9703H20.9701H20.97H20.9698H20.9697H20.9695H20.9694H20.9692H20.9691H20.9689H20.9688H20.9686H20.9685H20.9684H20.9682H20.9681H20.9679H20.9678H20.9676H20.9675H20.9673H20.9672H20.967C20.1644 5.89997 19.3616 5.82742 18.5589 5.76374C19.3723 5.82525 20.1841 5.89569 20.9955 5.97633ZM15.4797 4.91301V5.56575C13.0498 5.44831 10.6212 5.42816 8.19689 5.54335L8.4032 5.53004L8.49977 4.94142L8.70967 3.66206C8.70968 3.662 8.70969 3.66195 8.7097 3.66189C8.79466 3.14683 8.87156 2.77703 9.09325 2.50389C9.27337 2.28197 9.66071 2 10.6797 2H13.2997C14.3138 2 14.705 2.29086 14.8892 2.52216C15.115 2.80581 15.1898 3.18239 15.2694 3.67069L15.2694 3.67069L15.2702 3.67514L15.4797 4.91301Z" fill="#3C8799" stroke="#3C8799" stroke-width="1.5"/>
<path opacity="0.3991" d="M19.2297 8.14C18.9897 7.89 18.6597 7.75 18.3197 7.75H5.67975C5.33975 7.75 4.99975 7.89 4.76975 8.14C4.53975 8.39 4.40975 8.73 4.42975 9.08L5.04975 19.34C5.15975 20.86 5.29975 22.76 8.78975 22.76H15.2097C18.6997 22.76 18.8398 20.87 18.9497 19.34L19.5697 9.09C19.5897 8.73 19.4597 8.39 19.2297 8.14Z" fill="#3C8799"/>
<path fill-rule="evenodd" clip-rule="evenodd" d="M9.58008 17C9.58008 16.5858 9.91586 16.25 10.3301 16.25H13.6601C14.0743 16.25 14.4101 16.5858 14.4101 17C14.4101 17.4142 14.0743 17.75 13.6601 17.75H10.3301C9.91586 17.75 9.58008 17.4142 9.58008 17Z" fill="#3C8799"/>
<path fill-rule="evenodd" clip-rule="evenodd" d="M8.75 13C8.75 12.5858 9.08579 12.25 9.5 12.25H14.5C14.9142 12.25 15.25 12.5858 15.25 13C15.25 13.4142 14.9142 13.75 14.5 13.75H9.5C9.08579 13.75 8.75 13.4142 8.75 13Z" fill="#3C8799"/>
</svg>
