<svg width="25" height="25" viewBox="0 0 25 25" fill="none" xmlns="http://www.w3.org/2000/svg">
<path fill-rule="evenodd" clip-rule="evenodd" d="M12.293 0.0288086C5.66555 0.0288086 0.292969 5.40139 0.292969 12.0288C0.292969 18.6562 5.66555 24.0288 12.293 24.0288C18.9204 24.0288 24.293 18.6562 24.293 12.0288C24.293 5.40139 18.9204 0.0288086 12.293 0.0288086ZM9.65471 5.66709C10.3374 5.63602 10.5555 5.62842 12.2937 5.62842H12.2917C14.0304 5.62842 14.2477 5.63602 14.9304 5.66709C15.6117 5.69829 16.077 5.80615 16.485 5.96442C16.9064 6.12776 17.2624 6.34643 17.6184 6.70243C17.9744 7.05817 18.1931 7.41524 18.3571 7.83617C18.5144 8.24311 18.6224 8.70818 18.6544 9.38952C18.6851 10.0722 18.6931 10.2903 18.6931 12.0285C18.6931 13.7666 18.6851 13.9842 18.6544 14.6669C18.6224 15.348 18.5144 15.8132 18.3571 16.2203C18.1931 16.6411 17.9744 16.9981 17.6184 17.3539C17.2628 17.7099 16.9062 17.9291 16.4854 18.0925C16.0782 18.2508 15.6126 18.3587 14.9313 18.3899C14.2486 18.421 14.0312 18.4286 12.2929 18.4286C10.5548 18.4286 10.3368 18.421 9.65417 18.3899C8.97297 18.3587 8.50776 18.2508 8.10056 18.0925C7.67988 17.9291 7.32281 17.7099 6.96721 17.3539C6.61134 16.9981 6.39267 16.6411 6.22907 16.2201C6.07093 15.8132 5.96307 15.3481 5.93173 14.6668C5.9008 13.9841 5.89307 13.7666 5.89307 12.0285C5.89307 10.2903 5.90107 10.0721 5.9316 9.38939C5.96227 8.70832 6.07027 8.24311 6.22894 7.83604C6.39294 7.41524 6.61161 7.05817 6.96761 6.70243C7.32335 6.34656 7.68042 6.12789 8.10136 5.96442C8.50829 5.80615 8.97336 5.69829 9.65471 5.66709Z" fill="white"/>
<path fill-rule="evenodd" clip-rule="evenodd" d="M11.7195 6.78431C11.8309 6.78414 11.9509 6.78419 12.0803 6.78425L12.2936 6.78431C14.0024 6.78431 14.2049 6.79045 14.8798 6.82112C15.5038 6.84965 15.8424 6.95392 16.068 7.04152C16.3667 7.15752 16.5796 7.29619 16.8035 7.52019C17.0275 7.74419 17.1662 7.95753 17.2824 8.2562C17.37 8.48153 17.4745 8.8202 17.5029 9.44421C17.5335 10.1189 17.5402 10.3216 17.5402 12.0296C17.5402 13.7376 17.5335 13.9403 17.5029 14.6149C17.4743 15.2389 17.37 15.5776 17.2824 15.8029C17.1664 16.1016 17.0275 16.3143 16.8035 16.5381C16.5795 16.7622 16.3668 16.9008 16.068 17.0168C15.8427 17.1048 15.5038 17.2088 14.8798 17.2374C14.2051 17.268 14.0024 17.2747 12.2936 17.2747C10.5846 17.2747 10.3821 17.268 9.70744 17.2374C9.08343 17.2086 8.74476 17.1043 8.51902 17.0167C8.22035 16.9007 8.00702 16.762 7.78302 16.538C7.55901 16.314 7.42035 16.1012 7.30408 15.8024C7.21648 15.5771 7.11208 15.2384 7.08368 14.6144C7.05301 13.9397 7.04688 13.7371 7.04688 12.028C7.04688 10.3189 7.05301 10.1173 7.08368 9.44261C7.11221 8.8186 7.21648 8.47993 7.30408 8.25433C7.42008 7.95566 7.55901 7.74232 7.78302 7.51832C8.00702 7.29432 8.22035 7.15565 8.51902 7.03938C8.74463 6.95138 9.08343 6.84738 9.70744 6.81872C10.2978 6.79205 10.5266 6.78405 11.7195 6.78271V6.78431ZM15.7099 7.84743C15.2859 7.84743 14.9419 8.19104 14.9419 8.61518C14.9419 9.03918 15.2859 9.38318 15.7099 9.38318C16.1339 9.38318 16.4779 9.03918 16.4779 8.61518C16.4779 8.19117 16.1339 7.84717 15.7099 7.84717V7.84743ZM9.00684 12.0304C9.00684 10.2153 10.4784 8.74372 12.2934 8.74365C14.1085 8.74365 15.5797 10.2153 15.5797 12.0304C15.5797 13.8454 14.1086 15.3164 12.2935 15.3164C10.4785 15.3164 9.00684 13.8454 9.00684 12.0304Z" fill="white"/>
<path d="M12.2935 9.896C13.4717 9.896 14.4269 10.8511 14.4269 12.0294C14.4269 13.2075 13.4717 14.1627 12.2935 14.1627C11.1152 14.1627 10.1602 13.2075 10.1602 12.0294C10.1602 10.8511 11.1152 9.896 12.2935 9.896Z" fill="white"/>
</svg>
