<svg width="25" height="25" viewBox="0 0 25 25" fill="none" xmlns="http://www.w3.org/2000/svg">
<circle cx="12.0977" cy="12.0288" r="12" fill="white"/>
<path d="M8.24165 7.29219L15.0363 16.1691L15.154 16.3228L15.3528 16.3182L16.8464 16.2836L17.5552 16.2671L17.1288 15.7237L10.2473 6.95401L10.1405 6.81793L9.96302 6.80877L8.55616 6.73616L7.78561 6.69639L8.24165 7.29219ZM8.24165 7.29219L8.54239 7.08852L8.54239 7.08852L8.24165 7.29219Z" stroke="#3C8799" stroke-width="0.726126"/>
<path d="M17.0163 4.61996L18.6699 4.70235L6.79292 19.651L5.30991 19.1945L17.0163 4.61996Z" fill="#3C8799"/>
<rect x="6.23438" y="3.02881" width="13.8647" height="3.4126" fill="white"/>
<rect x="4.09766" y="16.5684" width="14.1865" height="4.59601" fill="white"/>
<path d="M11.3493 10.7449L12.2754 10.1228L13.8835 12.1696L13.0165 12.9328L11.3493 10.7449Z" fill="white"/>
</svg>
