<svg width="25" height="25" viewBox="0 0 25 25" fill="none" xmlns="http://www.w3.org/2000/svg">
<path fill-rule="evenodd" clip-rule="evenodd" d="M12.3906 0.0288086C5.76321 0.0288086 0.390625 5.40139 0.390625 12.0288C0.390625 18.6562 5.76321 24.0288 12.3906 24.0288C19.018 24.0288 24.3906 18.6562 24.3906 12.0288C24.3906 5.40139 19.018 0.0288086 12.3906 0.0288086ZM17.3915 7.90308C17.9423 8.05421 18.376 8.49952 18.5232 9.06503C18.7907 10.0899 18.7907 12.2284 18.7907 12.2284C18.7907 12.2284 18.7907 14.3668 18.5232 15.3918C18.376 15.9573 17.9423 16.4026 17.3915 16.5538C16.3934 16.8284 12.3907 16.8284 12.3907 16.8284C12.3907 16.8284 8.38803 16.8284 7.38985 16.5538C6.83909 16.4026 6.40534 15.9573 6.25814 15.3918C5.99072 14.3668 5.99072 12.2284 5.99072 12.2284C5.99072 12.2284 5.99072 10.0899 6.25814 9.06503C6.40534 8.49952 6.83909 8.05421 7.38985 7.90308C8.38803 7.62842 12.3907 7.62842 12.3907 7.62842C12.3907 7.62842 16.3934 7.62842 17.3915 7.90308Z" fill="white"/>
<path d="M11.1914 14.4292V10.4292L14.3914 12.4293L11.1914 14.4292Z" fill="white"/>
</svg>
