<svg width="32" height="32" viewBox="0 0 32 32" fill="none" xmlns="http://www.w3.org/2000/svg">
<path d="M21.3333 5.65837L22.2411 5.74243C23.8547 5.89183 24.9441 6.43353 25.6621 7.19569C26.3217 7.89598 26.7485 8.8683 26.9102 10.12H5.08976C5.25145 8.8683 5.67823 7.89598 6.33789 7.19569C7.05583 6.43353 8.14528 5.89183 9.75885 5.74243L10.6666 5.65837V5.66669H11.6666H20.3333H21.3333V5.65837Z" fill="#3C8799" stroke="#3C8799" stroke-width="2"/>
<path d="M26.6667 13.1201H5.33333C4.6 13.1201 4 13.7201 4 14.4534V22.6667C4 26.6667 6 29.3334 10.6667 29.3334H21.3333C26 29.3334 28 26.6667 28 22.6667V14.4534C28 13.7201 27.4 13.1201 26.6667 13.1201ZM12.28 24.2801C12.2133 24.3334 12.1467 24.4001 12.08 24.4401C12 24.4934 11.92 24.5334 11.84 24.5601C11.76 24.6001 11.68 24.6267 11.6 24.6401C11.5067 24.6534 11.4267 24.6667 11.3333 24.6667C11.16 24.6667 10.9867 24.6267 10.8267 24.5601C10.6533 24.4934 10.52 24.4001 10.3867 24.2801C10.1467 24.0267 10 23.6801 10 23.3334C10 22.9867 10.1467 22.6401 10.3867 22.3867C10.52 22.2667 10.6533 22.1734 10.8267 22.1067C11.0667 22.0001 11.3333 21.9734 11.6 22.0267C11.68 22.0401 11.76 22.0667 11.84 22.1067C11.92 22.1334 12 22.1734 12.08 22.2267C12.1467 22.2801 12.2133 22.3334 12.28 22.3867C12.52 22.6401 12.6667 22.9867 12.6667 23.3334C12.6667 23.6801 12.52 24.0267 12.28 24.2801ZM12.28 19.6134C12.0267 19.8534 11.68 20.0001 11.3333 20.0001C10.9867 20.0001 10.64 19.8534 10.3867 19.6134C10.1467 19.3601 10 19.0134 10 18.6667C10 18.3201 10.1467 17.9734 10.3867 17.7201C10.76 17.3467 11.3467 17.2267 11.84 17.4401C12.0133 17.5067 12.16 17.6001 12.28 17.7201C12.52 17.9734 12.6667 18.3201 12.6667 18.6667C12.6667 19.0134 12.52 19.3601 12.28 19.6134ZM16.9467 24.2801C16.6933 24.5201 16.3467 24.6667 16 24.6667C15.6533 24.6667 15.3067 24.5201 15.0533 24.2801C14.8133 24.0267 14.6667 23.6801 14.6667 23.3334C14.6667 22.9867 14.8133 22.6401 15.0533 22.3867C15.5467 21.8934 16.4533 21.8934 16.9467 22.3867C17.1867 22.6401 17.3333 22.9867 17.3333 23.3334C17.3333 23.6801 17.1867 24.0267 16.9467 24.2801ZM16.9467 19.6134C16.88 19.6667 16.8133 19.7201 16.7467 19.7734C16.6667 19.8267 16.5867 19.8667 16.5067 19.8934C16.4267 19.9334 16.3467 19.9601 16.2667 19.9734C16.1733 19.9867 16.0933 20.0001 16 20.0001C15.6533 20.0001 15.3067 19.8534 15.0533 19.6134C14.8133 19.3601 14.6667 19.0134 14.6667 18.6667C14.6667 18.3201 14.8133 17.9734 15.0533 17.7201C15.1733 17.6001 15.32 17.5067 15.4933 17.4401C15.9867 17.2267 16.5733 17.3467 16.9467 17.7201C17.1867 17.9734 17.3333 18.3201 17.3333 18.6667C17.3333 19.0134 17.1867 19.3601 16.9467 19.6134ZM21.6133 24.2801C21.36 24.5201 21.0133 24.6667 20.6667 24.6667C20.32 24.6667 19.9733 24.5201 19.72 24.2801C19.48 24.0267 19.3333 23.6801 19.3333 23.3334C19.3333 22.9867 19.48 22.6401 19.72 22.3867C20.2133 21.8934 21.12 21.8934 21.6133 22.3867C21.8533 22.6401 22 22.9867 22 23.3334C22 23.6801 21.8533 24.0267 21.6133 24.2801ZM21.6133 19.6134C21.5467 19.6667 21.48 19.7201 21.4133 19.7734C21.3333 19.8267 21.2533 19.8667 21.1733 19.8934C21.0933 19.9334 21.0133 19.9601 20.9333 19.9734C20.84 19.9867 20.7467 20.0001 20.6667 20.0001C20.32 20.0001 19.9733 19.8534 19.72 19.6134C19.48 19.3601 19.3333 19.0134 19.3333 18.6667C19.3333 18.3201 19.48 17.9734 19.72 17.7201C19.8533 17.6001 19.9867 17.5067 20.16 17.4401C20.4 17.3334 20.6667 17.3067 20.9333 17.3601C21.0133 17.3734 21.0933 17.4001 21.1733 17.4401C21.2533 17.4667 21.3333 17.5067 21.4133 17.5601C21.48 17.6134 21.5467 17.6667 21.6133 17.7201C21.8533 17.9734 22 18.3201 22 18.6667C22 19.0134 21.8533 19.3601 21.6133 19.6134Z" fill="#3C8799"/>
</svg>
