<svg width="174" height="36" viewBox="0 0 174 36" fill="none" xmlns="http://www.w3.org/2000/svg">
<path d="M32.0617 19.4076L32.0846 19.4094L34.4784 19.6596C34.6465 19.6777 34.8008 19.7598 34.9099 19.888L34.9276 19.9098L34.9049 19.9211C35.0167 20.0623 35.0661 20.243 35.0413 20.4215C34.5183 24.5795 32.5476 28.4204 29.4749 31.2701C26.2867 34.2271 22.099 35.87 17.7506 35.87C15.6386 35.8734 13.5446 35.4845 11.5751 34.7235L11.4678 34.6816C11.3066 34.622 11.1771 34.4994 11.1085 34.3428L11.0982 34.3177C11.0311 34.1617 11.0273 33.9861 11.087 33.828L12.0319 31.5228C12.1599 31.1969 12.5228 31.0327 12.8505 31.1482L12.8722 31.1564C17.7018 33.0212 23.1719 31.9709 26.9674 28.4499C29.3834 26.23 30.9412 23.231 31.3682 19.978C31.4135 19.642 31.7049 19.3977 32.0389 19.4066L32.0617 19.4076ZM88.5963 9.6241C90.6375 9.6241 92.2337 10.2468 93.2531 11.4428L93.2873 11.4834V10.4713C93.3009 10.1888 93.5197 9.96046 93.7989 9.93289L93.8217 9.9311H96.5452C96.8254 9.95047 97.0483 10.171 97.0725 10.4486L97.0741 10.4713V25.59C97.1621 27.7218 96.5069 29.8181 95.2204 31.5203C93.7534 33.3057 91.5246 34.2097 88.5963 34.2097C84.5254 34.2097 81.3128 31.634 80.784 27.9552C80.7578 27.6896 80.9195 27.4427 81.171 27.3594L81.1934 27.3525L83.8544 26.7271C83.8682 26.724 83.8822 26.7213 83.8962 26.7193C84.1883 26.6765 84.4597 26.8785 84.5025 27.1706C84.7456 29.2342 86.5192 30.7737 88.5963 30.7242C91.743 30.7242 93.2234 29.1249 93.2527 25.7827L93.2531 25.6809V24.3561C92.0736 25.679 90.3678 26.41 88.5963 26.3518C84.0704 26.3518 80.7898 22.838 80.7898 18.005C80.7483 15.8305 81.514 13.7177 82.939 12.0746C84.3863 10.4845 86.4464 9.59221 88.5963 9.6241ZM6.6298 28.012L6.66355 28.0118L6.69742 28.012C7.78381 28.0245 8.65853 28.9029 8.67034 29.9854L8.67043 30.0193C8.67043 30.0305 8.67029 30.0418 8.6701 30.053C8.65118 31.1613 7.73749 32.0446 6.62915 32.0258C5.52081 32.0069 4.63765 31.0932 4.65637 29.9848C4.6749 28.8991 5.55206 28.0294 6.6298 28.012ZM135.741 9.41373L135.88 9.41476C140.746 9.48195 143.76 12.8686 143.76 18.2893C143.76 18.5761 143.745 18.8627 143.715 19.1478C143.69 19.4101 143.475 19.6123 143.214 19.6248L143.192 19.6254H131.627C131.698 22.0544 133.706 23.9763 136.136 23.941C138.019 24.0594 139.736 22.8617 140.275 21.0527C140.374 20.7929 140.654 20.6532 140.919 20.7277L140.94 20.7342L143.248 21.5473C143.376 21.5883 143.48 21.6788 143.539 21.7976L143.55 21.8202C143.613 21.9455 143.624 22.091 143.579 22.2239C142.506 25.3985 139.485 27.4991 136.136 27.398C133.94 27.4199 131.827 26.562 130.268 25.0157C128.566 23.2255 127.659 20.8254 127.749 18.3575C127.749 12.813 131.734 9.48083 135.625 9.41474L135.741 9.41373ZM70.2993 9.41374H70.3049C75.2574 9.41374 78.3335 12.8139 78.3335 18.2893C78.3331 18.5761 78.3179 18.8627 78.2879 19.1478C78.265 19.4115 78.049 19.6152 77.7868 19.625L77.7648 19.6254H66.1998C66.2711 22.0611 68.2894 23.9857 70.7257 23.9411C72.6104 24.0615 74.3278 22.8631 74.8651 21.0527C74.9614 20.7909 75.2435 20.6502 75.5088 20.7275L75.5303 20.7342L77.8387 21.5473C77.9737 21.5909 78.0834 21.6903 78.1401 21.8202C78.1941 21.9494 78.1941 22.0948 78.1401 22.2239C77.0687 25.3965 74.0502 27.4965 70.703 27.398C68.5034 27.4229 66.3856 26.5648 64.8238 25.0157C63.1247 23.2242 62.2171 20.825 62.305 18.3575C62.305 12.757 66.3704 9.41374 70.2993 9.41374ZM52.7869 9.40799C55.01 9.40799 56.8068 9.94816 58.1373 11.0114C59.0369 11.7283 59.7037 12.6959 60.0534 13.7918L60.0545 13.7962C60.1001 13.9851 59.9891 14.1755 59.8048 14.2302L59.7862 14.2352L57.0285 15.145C56.9061 15.1935 56.7699 15.1935 56.6476 15.145C56.5432 15.0963 56.4646 15.0052 56.4315 14.8949L56.4168 14.8406C56.1656 13.9427 55.3445 12.5011 52.7869 12.5011C50.9674 12.5011 49.8757 13.5473 49.8757 14.5594L49.8762 14.5995C49.8898 15.2576 50.2477 16.0837 51.8169 16.3977L51.8658 16.4073L54.9021 16.9758C58.2569 17.6514 60.1907 19.4747 60.229 22.0159L60.2296 22.0931L60.2183 22.0478L60.2175 22.1248C60.1687 24.6721 57.7048 27.3525 53.1678 27.3525C47.8516 27.3525 45.7649 24.3447 45.3782 22.5708C45.353 22.3852 45.4662 22.2099 45.6433 22.1553L45.6625 22.15L48.5055 21.263C48.5563 21.2547 48.6082 21.2547 48.659 21.263C48.7313 21.2617 48.8027 21.277 48.8679 21.3077L48.892 21.3199C48.9965 21.3699 49.0735 21.4636 49.1024 21.5757C49.4607 23.2815 51.0015 24.2993 53.219 24.2993C55.283 24.2993 56.2211 23.2189 56.2211 22.241C56.2211 21.2738 55.4035 20.5568 53.994 20.2606L53.9468 20.2509L50.7571 19.6312C47.7833 19.0683 45.9298 17.2203 45.9298 14.8152C45.9298 11.887 49.074 9.40799 52.7869 9.40799ZM167.459 4.67171H169.944C170.237 4.68931 170.467 4.92709 170.478 5.21833L170.479 5.24027V9.90837H173.469C173.76 9.92882 173.987 10.1655 173.998 10.4546L173.998 10.4769V12.956L173.998 12.9775C173.99 13.2555 173.769 13.4812 173.491 13.4954L173.469 13.4961H170.479V21.7918C170.479 23.1677 171.024 23.7364 172.428 23.7364C172.712 23.7314 172.997 23.7098 173.278 23.6718L173.384 23.6567C173.539 23.6305 173.697 23.6742 173.816 23.7762C173.923 23.8757 173.987 24.0127 173.997 24.1582L173.998 24.1856V26.5224C174 26.7605 173.845 26.9715 173.617 27.0398C172.962 27.2231 172.286 27.3152 171.606 27.3135L171.513 27.3127C168.546 27.3127 166.695 25.4235 166.658 22.368L166.658 22.2751V13.5303H164.07C163.788 13.5136 163.562 13.2923 163.538 13.0129L163.536 12.9901V10.4997C163.535 10.2058 163.759 9.96133 164.049 9.93283L164.07 9.9311L164.766 9.93101L164.84 9.92969C165.652 9.90637 166.899 9.5773 166.925 7.76498L166.925 7.70788V5.24027C166.924 4.94646 167.148 4.70195 167.438 4.67344L167.459 4.67171ZM119.166 9.41121L119.232 9.41374H119.226C122.153 9.41374 125.108 11.4533 125.167 15.9076L125.168 16.0433V26.5736C125.155 26.8561 124.935 27.0843 124.656 27.112L124.633 27.1138H121.91C121.628 27.0971 121.402 26.8758 121.377 26.5964L121.375 26.5736V16.3845L121.375 16.3061C121.358 15.0078 120.917 12.9218 118.243 12.9218C116.266 12.9218 114.859 14.4599 114.831 16.6975L114.83 16.7655V26.5736C114.817 26.8561 114.599 27.0843 114.319 27.112L114.296 27.1138H111.539C111.256 27.0971 111.03 26.8758 111.006 26.5964L111.005 26.5736V16.3845L111.004 16.3061C110.988 15.0078 110.546 12.9218 107.871 12.9218C105.817 12.9218 104.426 14.4487 104.398 16.7302L104.397 16.7996V26.5736C104.383 26.8561 104.165 27.0843 103.886 27.112L103.863 27.1138H101.139C100.859 27.0944 100.636 26.8737 100.612 26.5962L100.611 26.5736V10.4371C100.624 10.1566 100.84 9.92912 101.117 9.89897L101.139 9.89696H103.761C104.043 9.91358 104.269 10.1349 104.294 10.4144L104.295 10.4371V11.4094C105.474 10.1167 107.151 9.39034 108.9 9.41374C110.927 9.35435 112.818 10.4257 113.807 12.194C114.986 10.3928 117.019 9.33909 119.166 9.41121ZM159.948 11.4208C160.992 12.7954 161.53 14.4861 161.474 16.2093L161.471 16.2821V26.5736C161.458 26.8541 161.242 27.0816 160.966 27.1118L160.943 27.1138H158.186C157.903 27.0971 157.677 26.8758 157.652 26.5964L157.651 26.5736V16.8337C157.651 14.2864 156.451 12.9901 154.177 12.9901C153.172 12.9576 152.212 13.4051 151.59 14.1955C150.988 15.063 150.677 16.0983 150.701 17.1526L150.703 17.2147V26.5736C150.689 26.8561 150.47 27.0843 150.191 27.112L150.169 27.1138H147.417C147.135 27.0971 146.908 26.8758 146.884 26.5964L146.882 26.5736V10.4257C146.895 10.1432 147.115 9.91501 147.394 9.88735L147.417 9.88555H150.106C150.386 9.90492 150.609 10.1256 150.633 10.4031L150.635 10.4257V11.5629C151.788 10.1652 153.52 9.37327 155.331 9.41374C157.097 9.33826 158.799 10.0784 159.948 11.4208ZM1.47207 20.0974H21.0485C21.4082 20.1005 21.6988 20.3885 21.7079 20.7455L21.7081 20.7684V23.219C21.7111 23.5787 21.428 23.8742 21.0713 23.8893L21.0484 23.8899H1.47207C1.11226 23.8868 0.821735 23.5987 0.8125 23.2418V23.2189V20.7683V20.7454C0.821542 20.3963 1.09985 20.113 1.44871 20.098L1.47207 20.0974ZM89.0683 13.0242C86.3846 13.0242 84.6789 14.9347 84.6789 18.005C84.6789 21.0754 86.3618 22.9801 89.0683 22.9801C91.6497 22.9801 93.3896 20.9787 93.3896 18.005C93.3896 15.0256 91.6497 13.0242 89.0683 13.0242ZM66.3208 16.3463L66.3135 16.4073H74.4045C74.2075 14.2458 72.6842 12.8979 70.4028 12.8711L70.3334 12.8707C68.3231 12.838 66.6112 14.3083 66.3289 16.2862L66.3208 16.3463ZM131.771 16.3463L131.763 16.4073H139.855C139.658 14.2458 138.134 12.8979 135.852 12.8711L135.783 12.8707C133.773 12.838 132.061 14.3083 131.779 16.2862L131.771 16.3463ZM23.4991 1.39662C23.6686 1.45776 23.806 1.58493 23.88 1.74916C23.948 1.91495 23.948 2.10083 23.88 2.26652L23.0271 4.54094C22.909 4.87817 22.5402 5.05615 22.2027 4.93892C17.7346 3.37974 12.7768 4.26563 9.12524 7.27576C6.84955 9.18056 5.2337 11.7556 4.50833 14.6332C4.43324 14.9239 4.17159 15.1271 3.87151 15.128H3.72367L1.38108 14.5651C1.20642 14.524 1.05643 14.4129 0.966025 14.258H0.954615C0.859823 14.1031 0.833102 13.916 0.88079 13.7406C1.81106 10.057 3.89257 6.7664 6.82244 4.34755C11.4813 0.512089 17.807 -0.607273 23.4991 1.39662ZM14.8282 11.2218H34.4045C34.7554 11.2247 35.0422 11.4991 35.0631 11.8467L35.0641 11.8699V14.3206C35.0671 14.6804 34.7841 14.9759 34.4274 14.991L34.4045 14.9915H14.8282C14.4707 14.9854 14.1835 14.6984 14.1744 14.3438L14.1742 14.3206V11.8927C14.1711 11.5352 14.4506 11.2408 14.8049 11.2226L14.8282 11.2218ZM28.418 3.74483L28.4517 3.74456L28.4856 3.74486C29.572 3.75731 30.4467 4.63576 30.4585 5.71808L30.4586 5.75197C30.4586 5.76328 30.4585 5.77459 30.4583 5.78581C30.4394 6.89415 29.5257 7.77731 28.4173 7.75849C27.309 7.73967 26.4258 6.82589 26.4446 5.71764C26.4631 4.63182 27.3403 3.76218 28.418 3.74483Z" fill="#4FB58B"/>
</svg>
