<svg width="174" height="32" viewBox="0 0 174 32" fill="none" xmlns="http://www.w3.org/2000/svg">
<path d="M3.64522 25.2981C2.34621 25.3009 1.14616 24.6046 0.50407 23.4753C-0.128768 22.3531 -0.0908195 20.9732 0.602745 19.8874L7.07144 9.72936C7.74547 8.6179 8.96539 7.95506 10.2647 7.99433C11.563 8.02544 12.744 8.75339 13.3551 9.8993C13.9581 11.0395 13.8828 12.4114 13.1605 13.4818L6.69592 23.6398C6.02965 24.678 4.87884 25.3036 3.64522 25.2981Z" fill="#F62B54"/>
<path d="M14.7403 25.2976C13.4356 25.2976 12.235 24.6001 11.6046 23.479C10.9731 22.3598 11.0111 20.9834 11.7033 19.9007L18.1596 9.76592C18.8239 8.63851 20.0475 7.96011 21.3556 7.99388C22.6713 8.02266 23.8636 8.75861 24.4666 9.90982C25.0655 11.061 24.9778 12.4411 24.2336 13.5087L17.7786 23.6435C17.1145 24.6772 15.969 25.3008 14.7403 25.2976Z" fill="#FFCC00"/>
<path d="M25.5881 25.386C27.4274 25.386 28.9184 23.9263 28.9184 22.1256C28.9184 20.325 27.4274 18.8652 25.5881 18.8652C23.7488 18.8652 22.2578 20.325 22.2578 22.1256C22.2578 23.9263 23.7488 25.386 25.5881 25.386Z" fill="#00CA72"/>
<path d="M170.264 19.052C171.27 19.052 171.872 19.7674 171.872 20.9392V24.9547H173.238V20.8473C173.238 18.8546 172.3 17.6993 170.534 17.6993C169.844 17.6993 168.747 17.8885 168.093 19.1589C167.784 18.3954 167.08 17.8637 166.261 17.7747C166.008 17.7284 165.75 17.7132 165.494 17.7295C164.932 17.7747 163.931 18.1242 163.557 18.9163V17.8515H162.189V24.9547H163.557V21.1214C163.557 19.6303 164.533 19.052 165.51 19.052C166.426 19.052 167.027 19.7523 167.027 20.9241V24.9547H168.387V21.1214C168.387 19.9346 169.099 19.0383 170.264 19.052ZM157.169 23.7678C157.794 23.7815 158.397 23.5321 158.834 23.0799C159.273 22.6276 159.506 22.0122 159.483 21.3805C159.483 19.9497 158.43 19.052 157.169 19.052C155.907 19.052 154.856 19.9497 154.856 21.3805C154.831 22.0109 155.064 22.6249 155.5 23.0757C155.936 23.528 156.536 23.7788 157.158 23.7678H157.169ZM157.169 25.1C155.171 25.1 153.503 23.6239 153.503 21.3722C153.503 19.1205 155.171 17.6911 157.169 17.6911C159.168 17.6911 160.849 19.1205 160.849 21.3722C160.849 23.6239 159.158 25.1068 157.16 25.1068L157.169 25.1ZM146.466 21.3722L146.452 21.3805C146.452 19.1287 148.164 17.6993 150.176 17.6911C151.198 17.6713 152.18 18.0857 152.88 18.8314L151.844 19.7139C151.399 19.2775 150.799 19.0367 150.176 19.0451C148.915 19.0451 147.819 19.9428 147.819 21.3722C147.819 22.3384 148.393 23.2087 149.274 23.5787C150.155 23.9487 151.169 23.7432 151.844 23.0607L152.895 23.9433C152.193 24.6966 151.205 25.117 150.176 25.1C148.179 25.1 146.466 23.6239 146.466 21.3722ZM142.09 23.591C142.087 23.3402 142.184 23.0986 142.359 22.9192C142.534 22.7397 142.774 22.6373 143.025 22.6344C143.275 22.6373 143.515 22.7397 143.69 22.9192C143.865 23.0986 143.962 23.3402 143.959 23.591C143.934 24.0903 143.524 24.4836 143.025 24.4887C142.525 24.4836 142.115 24.0903 142.09 23.591Z" fill="#333333"/>
<path d="M145.832 8.8205H140.965L137.554 17.6149L134.16 8.8205H129.294L135.21 22.7172L131.531 31.905H136.361L145.832 8.8205ZM116.235 16.55C116.235 18.7702 118.175 20.2312 120.082 20.2312C121.955 20.2312 123.796 18.8716 123.796 16.5487C123.796 14.2257 121.955 12.8648 120.082 12.8648C118.175 12.8648 116.235 14.3271 116.235 16.5487V16.55ZM123.796 24.3097V22.5514C122.809 24.0452 120.506 24.6099 119.325 24.6099C115.414 24.6099 111.501 21.5263 111.501 16.5487C111.501 11.5724 115.412 8.48884 119.325 8.48884C120.31 8.48884 122.613 8.81776 123.796 10.5446V8.82598H128.332V24.3125L123.796 24.3111V24.3097ZM110.21 24.3097H105.674V22.3856C104.916 23.8109 103.078 24.6414 101.17 24.6414C97.2245 24.6414 93.7394 21.4906 93.7394 16.6117C93.7394 11.641 97.2245 8.4861 101.17 8.4861C103.075 8.4861 104.918 9.28098 105.674 10.7077V0.383789H110.21V24.3097ZM105.575 16.5144C105.575 14.1928 103.899 12.8319 102.025 12.8319C100.085 12.8319 98.473 14.2915 98.473 16.5144C98.473 18.8086 100.085 20.2613 102.024 20.2613C103.933 20.2641 105.575 18.7373 105.575 16.5144ZM82.5233 16.1142C82.5233 13.7597 83.7403 12.9635 85.3507 12.9635C86.8952 12.9635 88.0135 13.9913 88.0135 16.0471V24.307H92.5827V15.0535C92.5827 10.6432 90.4119 8.4861 86.9596 8.4861C85.1519 8.4861 83.3443 9.51396 82.522 11.0736V8.8205H77.9555V24.307H82.5233V16.1142ZM68.6773 24.5729C64.3384 24.5729 60.7189 21.3892 60.7189 16.513C60.7189 11.6341 64.3343 8.48199 68.6773 8.48199C73.0204 8.48199 76.6673 11.6341 76.6673 16.513C76.6673 21.392 73.0163 24.5742 68.6773 24.5742V24.5729ZM68.6773 20.064C70.5823 20.064 72.1625 18.6688 72.1625 16.5144C72.1625 14.4244 70.5837 12.9977 68.6773 12.9977C67.7497 12.9832 66.8568 13.3504 66.2077 14.0133C65.555 14.6795 65.2004 15.582 65.2251 16.5144C65.2265 18.6715 66.8039 20.064 68.6773 20.064ZM52.5275 12.9648C53.8747 12.9648 55.0588 14.027 55.0588 16.0484V24.3097H59.5951V15.5139C59.5951 10.8379 57.3215 8.48336 53.6774 8.48336C52.5947 8.48336 50.5554 8.81227 49.0753 11.2353C48.2201 9.44407 46.5769 8.51488 44.1484 8.51488C42.4263 8.50612 40.8582 9.50508 40.1383 11.0695V8.82187H35.5664V24.3084H40.1342V16.1142C40.1342 13.7597 41.417 12.9635 42.7971 12.9635C44.1128 12.9635 45.2941 13.9913 45.3284 15.9484V24.3084H49.8976V16.1142C49.8976 13.8625 51.0817 12.9662 52.5275 12.9662V12.9648Z" fill="#333333"/>
</svg>
