<svg width="174" height="28" viewBox="0 0 174 28" fill="none" xmlns="http://www.w3.org/2000/svg">
<path d="M164.721 12.532V16.1429H167.258V19.7254C167.265 19.9998 167.253 20.2927 167.215 20.5447L167.194 20.6671C167.19 20.6944 167.185 20.7224 167.179 20.7512L167.158 20.8393C167.154 20.8542 167.15 20.8694 167.146 20.8846L167.116 20.9776C166.888 21.6372 166.201 22.4732 164.657 22.4732C163.013 22.4732 162.353 21.5135 162.172 20.8393L162.151 20.7512L162.135 20.6671C162.09 20.3908 162.07 20.0456 162.07 19.7254V8.40999C162.07 8.05421 162.092 7.66854 162.156 7.35435L162.199 7.16342C162.202 7.1502 162.206 7.13676 162.209 7.12312L162.233 7.03904C162.238 7.02466 162.243 7.01012 162.247 6.99543L162.279 6.90554C162.513 6.28035 163.134 5.44769 164.644 5.44769C165.809 5.44769 166.436 5.92252 166.772 6.41328L166.831 6.50537C166.85 6.53605 166.868 6.56669 166.884 6.59716L166.931 6.68798L166.972 6.77716L167.008 6.86402L167.039 6.9479L167.065 7.02811L167.087 7.104L167.104 7.17488L167.119 7.24008C167.125 7.2725 167.131 7.30693 167.136 7.34272L167.151 7.45355C167.153 7.4725 167.156 7.49163 167.158 7.51086L167.173 7.68466L167.183 7.85134L167.192 8.07862L167.194 8.19509V9.5691H173.429L173.43 8.71378L173.434 8.40788L173.433 8.17075L173.428 7.89466L173.423 7.74602L173.412 7.51433L173.396 7.277L173.382 7.11832C172.96 2.93838 169.818 1.33018 165.995 1.05034L165.74 1.03364L165.482 1.02079C165.352 1.01531 165.223 1.01125 165.092 1.00856L164.83 1.00499C164.786 1.00455 164.743 1.00455 164.699 1.00455L164.436 1.00634C164.392 1.00694 164.348 1.00769 164.305 1.0086L164.044 1.01588L163.786 1.02692L163.529 1.0418L163.275 1.0606C163.19 1.06753 163.106 1.07512 163.023 1.0834L162.773 1.11027C162.731 1.1151 162.69 1.1201 162.649 1.12527L162.403 1.15841C161.831 1.24071 161.282 1.35795 160.761 1.51469L160.54 1.5843C158.124 2.3769 156.368 4.06205 156.008 7.11832L155.971 7.45758L155.945 7.72025L155.921 7.99564L155.901 8.26962C155.89 8.44866 155.883 8.61735 155.883 8.75684L155.883 19.2994L155.885 19.4303L155.891 19.6292L155.897 19.7686L155.905 19.9175L155.917 20.0794L155.931 20.2578L155.958 20.5639L155.982 20.7987C156.331 24.683 159.276 26.4109 162.878 26.8185L163.13 26.8449C163.553 26.8852 163.983 26.9079 164.419 26.9144L164.681 26.9163L164.945 26.9144C165.383 26.9079 165.816 26.8852 166.24 26.8449L166.493 26.8185C170.107 26.4109 173.032 24.683 173.388 20.7987L173.417 20.4562L173.438 20.1663L173.457 19.8416L173.469 19.5619L173.479 19.1659V12.532H164.721ZM121.728 1.67058H115.466V19.9864C115.476 20.3056 115.466 20.6642 115.411 20.9271L115.393 21.0068L115.37 21.0917C115.362 21.1207 115.353 21.1505 115.343 21.1809L115.31 21.2738C115.074 21.9035 114.472 22.7253 113.032 22.7253C111.682 22.7253 111.066 21.9837 110.808 21.3696L110.77 21.2738C110.764 21.2581 110.758 21.2425 110.753 21.227L110.723 21.1358L110.699 21.0487C110.695 21.0345 110.692 21.0206 110.689 21.0068L110.671 20.9271C110.609 20.6642 110.601 20.3056 110.609 19.9864V1.67058H104.349V19.418L104.348 19.5607L104.35 19.8102L104.359 20.1773L104.376 20.6234L104.388 20.848L104.396 20.9672L104.404 21.0549C104.711 24.3385 106.637 26.0476 109.358 26.7627L109.589 26.8208C110.096 26.9416 110.628 27.0296 111.18 27.0884L111.437 27.1134L111.696 27.1344L111.959 27.1515C112.09 27.159 112.223 27.165 112.357 27.1696L112.625 27.177L112.896 27.1807C112.941 27.1811 112.987 27.1811 113.032 27.1811L113.305 27.1793C113.35 27.1787 113.395 27.1779 113.44 27.177L113.709 27.1696C113.843 27.165 113.976 27.159 114.108 27.1515L114.37 27.1344L114.63 27.1134L114.887 27.0884C118.55 26.6995 121.297 25.0322 121.675 21.0549L121.68 21.0154L121.69 20.9112L121.705 20.7034L121.719 20.452L121.726 20.2702L121.734 19.9913L121.736 19.8102L121.735 19.6399L121.731 19.4865C121.73 19.4627 121.729 19.4398 121.728 19.418V1.67058ZM64.1955 1.67058L61.072 21.0238L57.9505 1.67058H47.8501L47.3144 26.4289H53.5022L53.6698 3.50938L57.9272 26.4289H64.2054L68.4667 3.50938L68.6348 26.4289H74.8383L74.2845 1.67058H64.1955ZM26.7992 1.67058L22.213 26.4289H28.9009L32.3569 3.50938L35.73 26.4289H42.3715L37.8044 1.67058H26.7992ZM143.611 21.604L137.781 1.67058H128.593V26.1708H134.671L134.318 5.59965L140.58 26.1708H149.391V1.67058H143.274L143.611 21.604ZM87.3923 8.11402C87.2823 7.62507 87.3141 7.1056 87.371 6.8341C87.3871 6.76205 87.4061 6.68941 87.4286 6.61687L87.4649 6.50824C87.7119 5.82188 88.2898 5.17715 89.6148 5.17715C91.0448 5.17715 91.8831 6.06857 91.8831 7.40635V8.92024H97.987V7.19462C97.987 3.30038 95.4383 1.80236 92.715 1.27732L92.4908 1.23633L92.2662 1.19954L92.0413 1.16679L91.8165 1.13789L91.5921 1.11267L91.3684 1.09095C91.294 1.08427 91.2197 1.07815 91.1456 1.07256L90.9241 1.05732L90.7042 1.04507L90.4861 1.03561L90.2702 1.02878L90.0567 1.0244L89.7417 1.02204L89.6028 1.02252L89.3266 1.02647C89.2808 1.02745 89.2351 1.02861 89.1894 1.02993L88.9169 1.0399C88.8264 1.04391 88.7364 1.04859 88.6469 1.05398L88.3795 1.07222C84.6557 1.35706 81.7498 2.88665 81.1685 6.47359C80.9965 7.56594 80.9539 8.53557 81.2277 9.77288C81.6585 11.8061 83.3523 13.253 85.2966 14.4665L85.5976 14.6514C85.648 14.682 85.6986 14.7124 85.7493 14.7426L86.0546 14.9225L86.3619 15.0995L86.6702 15.2738L87.133 15.5308L88.3489 16.1971L88.6443 16.3609L88.9347 16.5242L89.2192 16.6872L89.497 16.8503C90.8221 17.6389 91.8839 18.4387 92.2659 19.3948C92.4773 19.9628 92.4311 20.6789 92.3289 21.1358L92.3113 21.2095C92.2861 21.3193 92.2543 21.4292 92.2144 21.5372L92.1717 21.6445C91.8904 22.3015 91.2757 22.8616 89.9251 22.8616C88.3845 22.8616 87.4572 21.9759 87.4572 20.641L87.4552 18.265H80.8853V20.1537C80.8853 24.5867 83.6978 26.5123 87.2202 27.084L87.4824 27.1239C87.658 27.1489 87.8353 27.1706 88.0138 27.1893L88.2827 27.2149C88.5974 27.2422 88.9159 27.2602 89.2368 27.2697L89.5124 27.2758C89.5585 27.2764 89.6045 27.2769 89.6506 27.2773L89.789 27.2778C89.8812 27.2778 89.9729 27.2771 90.0644 27.2758L90.3376 27.2698C90.3829 27.2685 90.4282 27.267 90.4734 27.2653L90.7431 27.2532C90.8327 27.2485 90.9218 27.2431 91.0105 27.237L91.2753 27.2166C91.4509 27.2016 91.6248 27.1838 91.7966 27.163L92.053 27.1296L92.3063 27.0919C92.3902 27.0785 92.4735 27.0644 92.5563 27.0496L92.8031 27.0028C95.7849 26.4053 98.0034 24.7854 98.449 21.6707C98.5103 21.2062 98.548 20.7772 98.5684 20.385L98.5794 20.129C98.5808 20.0873 98.5821 20.046 98.5831 20.0052L98.5872 19.7657V19.5374L98.5834 19.3203L98.5763 19.1145L98.5663 18.9201C98.5644 18.8886 98.5625 18.8576 98.5604 18.8271L98.5468 18.65L98.5314 18.4843L98.5145 18.3304L98.4873 18.1216L98.4592 17.9395L98.4225 17.7389L98.4054 17.6568C97.9755 15.5008 96.088 13.9779 93.991 12.7244L93.6901 12.5471L93.3872 12.3733L93.0831 12.2026L92.6264 11.9521L92.0206 11.627L90.9876 11.0776L90.5625 10.8476C90.5161 10.8222 90.4699 10.7968 90.4239 10.7715L90.1519 10.6198L89.8876 10.4687C88.5866 9.71431 87.6032 8.97362 87.3923 8.11402ZM6.87375 8.0533C6.76139 7.58537 6.77895 7.09313 6.8366 6.80711L6.86046 6.70001L6.88754 6.59405C7.09375 5.8506 7.65753 5.08432 9.11471 5.08432C10.5628 5.08432 11.4154 5.98432 11.4154 7.33291V8.86524H17.5909V7.12595C17.5909 3.40978 15.279 1.8491 12.6957 1.23861L12.4705 1.18788C12.2823 1.14756 12.0929 1.11205 11.9033 1.08088L11.6756 1.04554L11.4478 1.01419L11.2204 0.986667L10.9935 0.962787C10.918 0.955414 10.8426 0.948621 10.7674 0.942375L10.5426 0.925257L10.3192 0.911256L10.0975 0.900195L9.87795 0.891899L9.66074 0.886191L9.33998 0.881836H9.23456C9.14198 0.881836 9.04976 0.882483 8.95791 0.883787L8.68351 0.889684C8.50135 0.894944 8.32078 0.902876 8.14196 0.913564L7.87505 0.931673C7.83079 0.935039 7.78664 0.93858 7.74261 0.942297L7.47985 0.966725C7.39274 0.975579 7.30612 0.985148 7.22 0.995443L6.96319 1.02851C6.75047 1.05791 6.54105 1.0919 6.33521 1.13066L6.08996 1.17946L5.84827 1.2329L5.61028 1.29104C5.53158 1.31122 5.45351 1.33218 5.3761 1.35395L5.14584 1.42168C2.74921 2.15839 1.02207 3.7035 0.586084 6.38458C0.406145 7.49441 0.375308 8.47072 0.63536 9.7217C1.09319 11.8835 2.96046 13.389 5.0495 14.654L5.35666 14.8375C5.40807 14.8678 5.45958 14.8979 5.51116 14.928L5.82152 15.1068L6.28885 15.3701L6.91099 15.7134L7.82864 16.2162L8.27443 16.4644L8.70779 16.7116L8.98843 16.8765C9.03459 16.904 9.08044 16.9315 9.12595 16.959L9.39489 17.1244C10.5418 17.8428 11.44 18.5827 11.7868 19.4501C12.0139 20.0142 11.9607 20.7301 11.8534 21.2018L11.8351 21.2781C11.8086 21.3867 11.776 21.4954 11.7358 21.6023L11.6929 21.7086C11.4045 22.3773 10.7853 22.9507 9.41705 22.9507C7.8704 22.9507 6.94528 22.0497 6.94528 20.6963L6.9367 18.3139H0.292969V20.2071C0.292969 25.5211 4.29958 27.2678 8.73675 27.399L9.0146 27.4051L9.29338 27.4071L9.56904 27.4052C9.70634 27.4032 9.84283 27.3998 9.97845 27.3948L10.2485 27.3829C10.3829 27.3759 10.5164 27.3674 10.6489 27.3573L10.9126 27.3351L11.1735 27.3086C11.26 27.2991 11.346 27.2888 11.4315 27.2778L11.6865 27.2427C11.771 27.2302 11.855 27.2171 11.9384 27.2031L12.1871 27.1591C15.2749 26.581 17.5761 24.943 18.0395 21.7394C18.1033 21.2818 18.1432 20.8583 18.1655 20.4703L18.1778 20.2169L18.1853 19.9741C18.1871 19.8949 18.1881 19.8175 18.1885 19.7418L18.1877 19.5203L18.1833 19.3096L18.1758 19.1098L18.1656 18.9209L18.1531 18.743L18.1387 18.5762L18.1146 18.347L18.0886 18.1432L18.0534 17.9114L18.0134 17.6867C17.5849 15.5562 15.7537 14.0405 13.6935 12.7939L13.3905 12.6133C13.3397 12.5835 13.2889 12.5539 13.238 12.5244L12.9316 12.3492L12.624 12.1772L12.316 12.0082L12.0084 11.8419L10.6512 11.1215L10.2171 10.8889L9.93528 10.7352L9.66038 10.5823L9.39323 10.4301C9.3494 10.4047 9.30593 10.3794 9.26283 10.3541L9.00886 10.2023C7.88749 9.51919 7.06405 8.83578 6.87375 8.0533Z" fill="#1428A0"/>
</svg>
