<svg width="174" height="37" viewBox="0 0 174 37" fill="none" xmlns="http://www.w3.org/2000/svg">
<path d="M172.236 12.6967C173.594 13.7952 172.157 15.5328 170.958 14.6541C169.48 13.7154 166.125 13.276 165.705 15.353C165.166 18.6285 173.854 16.7512 173.714 22.0637C173.575 27.1368 166.225 27.2566 163.469 24.9797C162.809 24.4405 162.829 23.5617 163.189 23.0224C163.708 22.5032 164.287 22.3234 164.966 22.8826C166.604 24.001 170.818 24.8399 171.118 22.0039C170.858 19.0479 162.55 20.8254 163.169 15.1534C163.628 11.2787 169.48 10.5796 172.236 12.6967ZM159.134 13.4756V20.7056C159.134 28.1752 147.091 28.1752 147.091 20.7056V13.4756C147.091 11.6782 149.707 11.5983 149.707 13.4756V20.7056C149.707 24.6401 156.517 24.8799 156.517 20.7056V13.4756C156.517 11.6981 159.134 11.5583 159.134 13.4756ZM76.6658 11.6582C80.1609 11.8379 83.8158 14.2545 83.8158 18.9881C83.8158 23.7214 80.1609 26.1781 76.6658 26.1781C72.9709 26.3379 69.1362 23.8812 69.1362 18.9881C69.1362 14.0748 72.9709 11.6582 76.6658 11.6582ZM94.2618 12.1574C99.3348 12.1574 100.373 18.9481 96.1392 20.6457L98.7955 23.8812C99.8341 25.4192 97.7569 26.897 96.5586 25.3792L93.5428 21.0652H90.4071V24.6801C90.4071 26.4177 87.7508 26.4777 87.7508 24.7201V13.3758C87.7508 12.6767 88.2901 12.1574 88.9492 12.1574H94.2618ZM52.878 11.9778C53.4572 11.9778 53.7968 12.3173 54.1363 12.6967L58.5302 18.6285L63.0839 12.477C63.743 11.6583 65.3607 11.9778 65.3607 13.3558V24.6003C65.3607 25.479 64.8015 25.9783 64.1624 25.9783C63.4434 25.9783 62.8842 25.479 62.8842 24.6003V17.2105L59.5688 21.4047C58.8497 22.2834 57.951 22.2834 57.2919 21.4047L54.316 17.2105V24.6003C54.316 25.479 53.597 25.9783 52.878 25.9783C52.2389 25.9783 51.6797 25.479 51.6797 24.6003V13.3558C51.6797 12.3174 52.5585 11.9778 52.878 11.9778ZM108.742 11.9778C111.339 11.9778 113.675 13.7154 113.675 17.0507C113.675 20.2063 111.339 21.9639 108.742 21.9639H105.407V24.6003C105.407 25.479 104.848 25.9783 104.129 25.9783C103.47 25.9783 102.77 25.479 102.77 24.6003V13.3558C102.77 12.6967 103.29 11.9778 104.129 11.9778H108.742ZM127.816 12.1574C128.515 12.1574 129.055 12.6767 129.055 13.3958V24.7401C129.055 25.439 128.515 25.9783 127.816 25.9783C127.097 25.9783 126.458 25.439 126.458 24.7401V20.3661H119.947V24.7401C119.947 25.439 119.428 25.9783 118.729 25.9783C117.83 25.9783 117.311 25.439 117.311 24.7401V13.3958C117.311 12.6767 117.83 12.1574 118.729 12.1574C119.428 12.1574 119.947 12.6767 119.947 13.3958V17.7498H126.458V13.3958C126.458 12.6767 127.097 12.1574 127.816 12.1574ZM141.718 12.1574C143.555 12.1574 143.515 14.7538 141.718 14.7538H135.966V17.7498H140.999C142.776 17.7498 142.776 20.3661 140.999 20.3661H135.966V23.3619H142.057C143.875 23.3619 144.014 25.9783 142.057 25.9783H134.548C133.849 25.9783 133.309 25.439 133.309 24.7401V13.3958C133.309 12.6767 133.849 12.1574 134.548 12.1574H141.718ZM76.446 14.2545C74.2091 14.2545 71.7725 15.8325 71.7725 18.9881C71.7725 22.1237 74.2091 23.7214 76.446 23.7214C78.7429 23.7214 81.1995 22.1237 81.1995 18.9881C81.1995 15.8325 78.7429 14.2545 76.446 14.2545ZM108.742 14.4943H105.407V19.4674H108.742C110.08 19.4674 111.139 18.289 111.139 17.0507C111.139 15.6527 110.08 14.4943 108.742 14.4943ZM94.2618 14.5741H90.4071V18.7683H94.2618C96.8582 18.7683 97.0179 14.5741 94.2618 14.5741Z" fill="#3DB5E6"/>
<path d="M35.8372 22.6404C33.89 30.4633 26.7657 36.029 18.3749 36.029C9.946 36.029 2.883 30.1339 1.01562 22.2787C3.26104 22.2787 5.36018 22.289 6.33471 22.289C6.79443 22.289 6.88371 22.297 6.91031 22.2951C7.64358 22.259 8.56303 22.017 9.17472 20.5295L11.5056 14.4321L16.6822 26.8958C17.1477 27.8893 17.9246 27.8189 18.3881 27.8189H18.4318C19.3361 27.8189 19.7293 27.5021 20.0732 26.8467L25.9204 14.5256L27.915 20.0784L28.0366 20.3473C28.4583 21.2724 28.7617 22.1862 29.8054 22.3056C30.0205 22.3303 32.519 22.2866 35.8871 22.2866C35.8871 22.2866 35.8871 22.3082 35.8372 22.6404Z" fill="#3DB5E6"/>
<path d="M36.4065 18.0333C36.4065 18.1264 36.4065 18.3605 36.4046 18.3605H36.4008H31.0248L27.8884 9.59912C27.6091 8.94753 27.1893 7.97071 25.9659 7.97071C25.2174 7.97071 24.5411 8.58886 24.1574 9.60898L18.4717 22.7789L12.9987 9.68887C12.463 8.52627 12.0926 7.9795 11.0211 7.9795C10.2936 7.9795 9.75976 8.24751 9.17846 9.62477L5.93002 18.4906L0.533037 18.485C0.529234 18.3501 0.527344 18.2153 0.527344 18.0804C0.527344 8.22486 8.51738 0.259766 18.3729 0.259766C28.2284 0.259766 36.4065 8.17784 36.4065 18.0333Z" fill="#D8292F"/>
</svg>
