<svg width="174" height="24" viewBox="0 0 174 24" fill="none" xmlns="http://www.w3.org/2000/svg">
<path d="M75.5312 15.535H86.975L80.9239 5.7998L69.8182 23.4015H64.7637L78.272 2.2581C78.8594 1.40381 79.8382 0.887695 80.9239 0.887695C81.9739 0.887695 82.9528 1.38602 83.5223 2.2225L97.084 23.4015H92.0296L89.6447 19.4683H78.0584L75.5312 15.535ZM128.034 19.4683V1.10127H123.745V21.2658C123.745 21.8176 123.958 22.3515 124.368 22.7608C124.777 23.1702 125.329 23.4015 125.934 23.4015H145.493L148.02 19.4683H128.034ZM57.0752 16.1758C61.2399 16.1758 64.6214 12.812 64.6214 8.6474C64.6214 4.48279 61.2399 1.10127 57.0752 1.10127H38.3112V23.4015H42.5987V5.03452H56.7904C58.7838 5.03452 60.3856 6.65408 60.3856 8.6474C60.3856 10.6407 58.7838 12.2603 56.7904 12.2603L44.6989 12.2425L57.5023 23.4015H63.7315L55.1175 16.1758H57.0752ZM11.9176 23.4015C5.76142 23.4015 0.765625 18.4182 0.765625 12.2603C0.765625 6.10236 5.76142 1.10127 11.9176 1.10127H24.8795C31.0374 1.10127 36.0296 6.10236 36.0296 12.2603C36.0296 18.4182 31.0374 23.4015 24.8795 23.4015H11.9176ZM24.5912 19.4683C28.5796 19.4683 31.8099 16.2469 31.8099 12.2603C31.8099 8.27366 28.5796 5.03452 24.5912 5.03452H12.2041C8.21748 5.03452 4.98538 8.27366 4.98538 12.2603C4.98538 16.2469 8.21748 19.4683 12.2041 19.4683H24.5912ZM106.036 23.4015C99.8782 23.4015 94.8771 18.4182 94.8771 12.2603C94.8771 6.10236 99.8782 1.10127 106.036 1.10127H121.431L118.922 5.03452H106.321C102.334 5.03452 99.0952 8.27366 99.0952 12.2603C99.0952 16.2469 102.334 19.4683 106.321 19.4683H121.787L119.26 23.4015H106.036ZM158.485 19.4683C155.193 19.4683 152.399 17.2614 151.544 14.218H169.876L172.403 10.2848H151.544C152.399 7.2592 155.193 5.03452 158.485 5.03452H171.068L173.613 1.10127H158.201C152.043 1.10127 147.042 6.10236 147.042 12.2603C147.042 18.4182 152.043 23.4015 158.201 23.4015H171.424L173.951 19.4683H158.485Z" fill="#EA1B22"/>
</svg>
