<svg width="174" height="28" viewBox="0 0 174 28" fill="none" xmlns="http://www.w3.org/2000/svg">
<path d="M24.3364 27.6313V20.6099H16.6901C14.6107 20.6099 12.6845 21.7014 11.6195 23.4835L9.14062 27.6313H24.3364Z" fill="#63D2F9"/>
<path d="M0 0.657227V7.67869H20.1398L24.3362 0.657227H0Z" fill="#4E5EE4"/>
<path d="M9.63607 11.6296L0.0195312 27.6302H8.2126L19.7123 8.48779H15.188C12.9124 8.48779 10.8041 9.68086 9.63607 11.6296Z" fill="#63B0F9"/>
<path d="M41.7686 20.8888C37.6488 20.8888 34.6172 17.8941 34.6172 13.8755C34.6172 9.89557 37.6682 6.86231 41.788 6.86231C45.9079 6.86231 48.9589 9.93422 48.9589 13.8755C48.9589 17.8555 45.8884 20.8888 41.7686 20.8888ZM41.788 18.4351C44.3921 18.4351 46.2576 16.5031 46.2576 13.8755C46.2576 11.2866 44.3921 9.31597 41.788 9.31597C39.1645 9.31597 37.299 11.2866 37.299 13.8755C37.299 16.5031 39.1645 18.4351 41.788 18.4351ZM51.7176 25.0812V10.4752H54.2051V11.7696H54.3411C54.6132 11.3446 55.546 10.224 57.4116 10.224C60.2682 10.224 62.231 12.3492 62.231 15.5177C62.231 18.6863 60.2877 20.8888 57.4893 20.8888C55.682 20.8888 54.7104 19.8841 54.38 19.3238H54.244V25.0812H51.7176ZM56.9257 18.609C58.5581 18.609 59.6658 17.3532 59.6658 15.5564C59.6658 13.7017 58.5581 12.5038 56.9063 12.5038C55.2351 12.5038 54.1857 13.8369 54.1857 15.5564C54.1857 17.4498 55.3517 18.609 56.9257 18.609ZM69.4594 20.8888C66.4473 20.8888 64.3096 18.6476 64.3096 15.6143C64.3096 12.4072 66.4667 10.224 69.4594 10.224C72.7436 10.224 74.5315 12.639 74.5315 15.4984V16.2906H66.7582C66.8359 17.8362 67.9048 18.8795 69.5371 18.8795C70.7809 18.8795 71.7331 18.2999 72.0829 17.4691H74.4343C73.929 19.5363 72.1023 20.8888 69.4594 20.8888ZM66.7971 14.5131H72.1218C72.0052 13.1414 70.9363 12.2333 69.4594 12.2333C68.0408 12.2333 66.9525 13.238 66.7971 14.5131ZM77.2514 20.6376V10.4752H79.6611V11.7117H79.7971C80.2052 10.9582 81.2158 10.224 82.6732 10.224C84.9664 10.224 86.3655 11.8276 86.3655 13.9915V20.6376H83.8392V14.6483C83.8392 13.4118 83.0425 12.5811 81.8765 12.5811C80.6522 12.5811 79.7777 13.5471 79.7777 14.8222V20.6376H77.2514ZM88.8717 20.6376V18.3385L95.9454 9.47053V9.33529H89.1243V7.11347H99.1713V9.39325L92.0976 18.2612V18.4158H99.2101V20.6376H88.8717ZM106.05 20.8888C103.038 20.8888 100.9 18.6476 100.9 15.6143C100.9 12.4072 103.057 10.224 106.05 10.224C109.334 10.224 111.122 12.639 111.122 15.4984V16.2906H103.349C103.426 17.8362 104.495 18.8795 106.128 18.8795C107.371 18.8795 108.324 18.2999 108.673 17.4691H111.025C110.52 19.5363 108.693 20.8888 106.05 20.8888ZM103.388 14.5131H108.712C108.596 13.1414 107.527 12.2333 106.05 12.2333C104.631 12.2333 103.543 13.238 103.388 14.5131ZM113.842 25.0812V10.4752H116.329V11.7696H116.465C116.737 11.3446 117.67 10.224 119.536 10.224C122.392 10.224 124.355 12.3492 124.355 15.5177C124.355 18.6863 122.412 20.8888 119.614 20.8888C117.806 20.8888 116.835 19.8841 116.504 19.3238H116.368V25.0812H113.842ZM119.05 18.609C120.682 18.609 121.79 17.3532 121.79 15.5564C121.79 13.7017 120.682 12.5038 119.031 12.5038C117.359 12.5038 116.31 13.8369 116.31 15.5564C116.31 17.4498 117.476 18.609 119.05 18.609ZM127.075 25.0812V10.4752H129.563V11.7696H129.699C129.971 11.3446 130.903 10.224 132.769 10.224C135.626 10.224 137.588 12.3492 137.588 15.5177C137.588 18.6863 135.645 20.8888 132.847 20.8888C131.04 20.8888 130.068 19.8841 129.737 19.3238H129.601V25.0812H127.075ZM132.283 18.609C133.916 18.609 135.023 17.3532 135.023 15.5564C135.023 13.7017 133.916 12.5038 132.264 12.5038C130.593 12.5038 129.543 13.8369 129.543 15.5564C129.543 17.4498 130.709 18.609 132.283 18.609ZM144.817 20.8888C141.805 20.8888 139.667 18.6476 139.667 15.6143C139.667 12.4072 141.824 10.224 144.817 10.224C148.101 10.224 149.889 12.639 149.889 15.4984V16.2906H142.116C142.193 17.8362 143.262 18.8795 144.895 18.8795C146.138 18.8795 147.091 18.2999 147.44 17.4691H149.792C149.287 19.5363 147.46 20.8888 144.817 20.8888ZM142.155 14.5131H147.479C147.363 13.1414 146.294 12.2333 144.817 12.2333C143.398 12.2333 142.31 13.238 142.155 14.5131ZM155.096 20.6376C153.308 20.6376 152.298 19.575 152.298 17.7782V6.14746H154.824V17.5464C154.824 18.126 155.116 18.4351 155.64 18.4351H156.049V20.6376H155.096ZM159.74 9.12277C158.827 9.12277 158.185 8.56248 158.185 7.65444C158.185 6.78503 158.827 6.20542 159.74 6.20542C160.653 6.20542 161.295 6.78503 161.295 7.65444C161.295 8.56248 160.653 9.12277 159.74 9.12277ZM158.477 20.6376V10.4752H161.003V20.6376H158.477ZM164.073 20.6376V10.4752H166.483V11.7117H166.619C167.027 10.9582 168.037 10.224 169.495 10.224C171.788 10.224 173.187 11.8276 173.187 13.9915V20.6376H170.661V14.6483C170.661 13.4118 169.864 12.5811 168.698 12.5811C167.474 12.5811 166.599 13.5471 166.599 14.8222V20.6376H164.073Z" fill="#282846"/>
</svg>
