<svg width="48" height="48" viewBox="0 0 48 48" fill="none" xmlns="http://www.w3.org/2000/svg">
<path fill-rule="evenodd" clip-rule="evenodd" d="M0 24C0 10.7452 10.7452 0 24 0C37.2548 0 48 10.7452 48 24C48 37.2548 37.2548 48 24 48C10.7452 48 0 37.2548 0 24ZM23.9648 17.6213C25.9148 17.6213 27.2303 18.4649 27.9803 19.1698L30.9112 16.304C29.1111 14.6284 26.7687 13.6 23.9648 13.6C19.9031 13.6 16.3953 15.9342 14.6875 19.3315L14.6877 19.3317C13.9839 20.7414 13.5801 22.3245 13.5801 24C13.5801 25.6755 13.9839 27.2587 14.6878 28.6684L18.0222 26.084L14.6992 28.6684C16.407 32.0658 19.9033 34.4 23.9649 34.4C26.7689 34.4 29.1228 33.4756 30.8421 31.8809L30.842 31.8808C32.8036 30.0666 33.9344 27.3973 33.9344 24.2311C33.9344 23.376 33.8652 22.752 33.7152 22.1049H23.9648V25.9644H29.6881C29.5727 26.9235 28.9496 28.368 27.565 29.3386L27.565 29.3387C26.6881 29.9511 25.5111 30.3787 23.9649 30.3787C21.2187 30.3787 18.8879 28.5645 18.0571 26.057L18.0572 26.0569C17.8379 25.4098 17.711 24.7164 17.711 24C17.711 23.2835 17.8379 22.5902 18.0456 21.9431L18.0454 21.9429C18.8878 19.4354 21.2186 17.6213 23.9648 17.6213ZM18.0454 21.9429L18.0453 21.9431L14.6877 19.3317L14.6878 19.3315L18.0454 21.9429ZM27.565 29.3387L30.842 31.8809C30.842 31.8808 30.842 31.8808 30.842 31.8808L27.5651 29.3387C27.5651 29.3387 27.5651 29.3387 27.565 29.3387ZM18.0571 26.057L18.0222 26.084L18.057 26.0569C18.057 26.0569 18.0571 26.0569 18.0571 26.057Z" fill="#3C8799"/>
</svg>
