<svg width="24" height="24" viewBox="0 0 24 24" fill="none" xmlns="http://www.w3.org/2000/svg">
<path opacity="0.4" d="M16.1894 8.86002C15.7994 8.86002 15.4894 8.55002 15.4894 8.16002V6.88002C15.4894 5.90002 15.0694 4.96002 14.3494 4.30002C13.6094 3.63002 12.6594 3.32002 11.6594 3.41002C9.97937 3.57002 8.50938 5.28002 8.50938 7.06002V7.96002C8.50938 8.35002 8.19937 8.66002 7.80937 8.66002C7.41937 8.66002 7.10938 8.35002 7.10938 7.96002V7.06002C7.10938 4.56002 9.12938 2.25002 11.5194 2.02002C12.9094 1.89002 14.2494 2.33002 15.2794 3.27002C16.2994 4.19002 16.8794 5.51002 16.8794 6.88002V8.16002C16.8794 8.55002 16.5694 8.86002 16.1894 8.86002Z" fill="#3C8799"/>
<path d="M19.9578 8.95996C19.1178 8.02996 17.7378 7.57996 15.7178 7.57996H8.27779C6.25779 7.57996 4.87779 8.02996 4.03779 8.95996C3.06779 10.04 3.09779 11.48 3.20779 12.48L3.90779 18.05C4.11779 20 4.90779 22 9.20779 22H14.7878C19.0878 22 19.8778 20 20.0878 18.06L20.7878 12.47C20.8978 11.48 20.9178 10.04 19.9578 8.95996ZM8.41779 13.15H8.40779C7.85779 13.15 7.40779 12.7 7.40779 12.15C7.40779 11.6 7.85779 11.15 8.40779 11.15C8.96779 11.15 9.41779 11.6 9.41779 12.15C9.41779 12.7 8.96779 13.15 8.41779 13.15ZM15.4178 13.15H15.4078C14.8578 13.15 14.4078 12.7 14.4078 12.15C14.4078 11.6 14.8578 11.15 15.4078 11.15C15.9678 11.15 16.4178 11.6 16.4178 12.15C16.4178 12.7 15.9678 13.15 15.4178 13.15Z" fill="#3C8799"/>
</svg>
