<svg width="24" height="25" viewBox="0 0 24 25" fill="none" xmlns="http://www.w3.org/2000/svg">
<path opacity="0.4" d="M9.58174 5.51857C10.0578 5.43063 10.495 5.73442 10.5856 6.1991C10.6762 6.66378 10.3715 7.11747 9.90839 7.20841C8.51413 7.48022 7.43756 8.55948 7.16468 9.95852V9.95952C7.087 10.3622 6.73246 10.655 6.32414 10.655C6.26937 10.655 6.21459 10.65 6.15882 10.6401C5.69573 10.5471 5.39098 10.0944 5.48161 9.62875C5.88893 7.53918 7.49731 5.92529 9.58174 5.51857Z" fill="white"/>
<path opacity="0.4" d="M9.64415 2.03674C9.86723 2.00476 10.0913 2.07072 10.2696 2.21262C10.4528 2.35652 10.5674 2.56438 10.5922 2.79722C10.645 3.26789 10.3054 3.6936 9.83536 3.74656C6.5937 4.10832 4.07407 6.63358 3.70957 9.88535C3.66077 10.321 3.29528 10.6498 2.85907 10.6498C2.82621 10.6498 2.79434 10.6478 2.76147 10.6438C2.53341 10.6188 2.33025 10.5059 2.18684 10.326C2.04443 10.1462 1.97969 9.92232 2.00559 9.69348C2.45972 5.63627 5.59979 2.48743 9.64415 2.03674Z" fill="white"/>
<path fill-rule="evenodd" clip-rule="evenodd" d="M12.9683 13.0012C8.97918 16.9892 8.07423 12.3755 5.53435 14.9136C3.08573 17.3616 1.67838 17.852 4.78076 20.9535C5.16937 21.2658 7.63839 25.0231 16.3154 16.3485C24.9935 7.67281 21.2384 5.20125 20.926 4.81276C17.8161 1.70265 17.3341 3.11819 14.8855 5.56614C12.3456 8.1053 16.9573 9.01322 12.9683 13.0012Z" fill="white"/>
</svg>
