<svg width="24" height="25" viewBox="0 0 24 25" fill="none" xmlns="http://www.w3.org/2000/svg">
<path opacity="0.4" d="M20.6211 8.4793C19.5711 3.8593 15.5411 1.7793 12.0011 1.7793C12.0011 1.7793 12.0011 1.7793 11.9911 1.7793C8.46107 1.7793 4.42107 3.8493 3.37107 8.4693C2.20107 13.6293 5.36107 17.9993 8.22107 20.7493C9.28107 21.7693 10.6411 22.2793 12.0011 22.2793C13.3611 22.2793 14.7211 21.7693 15.7711 20.7493C18.6311 17.9993 21.7911 13.6393 20.6211 8.4793Z" fill="white"/>
<path d="M12.0016 13.489C13.7413 13.489 15.1516 12.0787 15.1516 10.339C15.1516 8.59927 13.7413 7.18896 12.0016 7.18896C10.2619 7.18896 8.85156 8.59927 8.85156 10.339C8.85156 12.0787 10.2619 13.489 12.0016 13.489Z" fill="white"/>
</svg>
