<svg width="24" height="25" viewBox="0 0 24 25" fill="none" xmlns="http://www.w3.org/2000/svg">
<path opacity="0.4" d="M22 15.9688C22 18.7588 19.76 21.0188 16.97 21.0288H16.96H7.05C4.27 21.0288 2 18.7788 2 15.9888V15.9788C2 15.9788 2.006 11.5528 2.014 9.32681C2.015 8.90881 2.495 8.67481 2.822 8.93481C5.198 10.8198 9.447 14.2568 9.5 14.3018C10.21 14.8708 11.11 15.1918 12.03 15.1918C12.95 15.1918 13.85 14.8708 14.56 14.2908C14.613 14.2558 18.767 10.9218 21.179 9.00581C21.507 8.74481 21.989 8.97881 21.99 9.39581C22 11.6048 22 15.9688 22 15.9688Z" fill="white"/>
<path d="M21.4769 5.70232C20.6109 4.07032 18.9069 3.02832 17.0309 3.02832H7.05086C5.17486 3.02832 3.47086 4.07032 2.60486 5.70232C2.41086 6.06732 2.50286 6.52232 2.82586 6.78032L10.2509 12.7193C10.7709 13.1393 11.4009 13.3483 12.0309 13.3483C12.0349 13.3483 12.0379 13.3483 12.0409 13.3483C12.0439 13.3483 12.0479 13.3483 12.0509 13.3483C12.6809 13.3483 13.3109 13.1393 13.8309 12.7193L21.2559 6.78032C21.5789 6.52232 21.6709 6.06732 21.4769 5.70232Z" fill="white"/>
</svg>
