<svg width="24" height="25" viewBox="0 0 24 25" fill="none" xmlns="http://www.w3.org/2000/svg">
<path opacity="0.4" d="M18.4698 16.8583L18.8598 20.0183C18.9598 20.8483 18.0698 21.4283 17.3598 20.9983L13.1698 18.5083C12.7098 18.5083 12.2599 18.4783 11.8199 18.4183C12.5599 17.5483 12.9998 16.4483 12.9998 15.2583C12.9998 12.4183 10.5398 10.1183 7.49985 10.1183C6.33985 10.1183 5.26985 10.4483 4.37985 11.0283C4.34985 10.7783 4.33984 10.5283 4.33984 10.2683C4.33984 5.71831 8.28984 2.02832 13.1698 2.02832C18.0498 2.02832 21.9998 5.71831 21.9998 10.2683C21.9998 12.9683 20.6098 15.3583 18.4698 16.8583Z" fill="white"/>
<path d="M13 15.2586C13 16.4486 12.56 17.5486 11.82 18.4186C10.83 19.6186 9.26 20.3886 7.5 20.3886L4.89 21.9386C4.45 22.2086 3.89 21.8386 3.95 21.3286L4.2 19.3586C2.86 18.4286 2 16.9386 2 15.2586C2 13.4986 2.94 11.9486 4.38 11.0286C5.27 10.4486 6.34 10.1187 7.5 10.1187C10.54 10.1187 13 12.4186 13 15.2586Z" fill="white"/>
</svg>
