<svg width="24" height="25" viewBox="0 0 24 25" fill="none" xmlns="http://www.w3.org/2000/svg">
<path opacity="0.4" d="M10.4901 2.25936L5.50015 4.12937C4.35015 4.55937 3.41016 5.91935 3.41016 7.14935V14.5794C3.41016 15.7594 4.19017 17.3094 5.14017 18.0194L9.44016 21.2294C10.8502 22.2894 13.1701 22.2894 14.5801 21.2294L18.8802 18.0194C19.8302 17.3094 20.6101 15.7594 20.6101 14.5794V7.14935C20.6101 5.91935 19.6701 4.55937 18.5201 4.12937L13.5302 2.25936C12.6802 1.94936 11.3201 1.94936 10.4901 2.25936Z" fill="white"/>
<path d="M11.9012 11.3291C11.9212 11.3291 11.9412 11.3291 11.9612 11.3291H11.9813H12.0013C13.1513 11.2891 14.0512 10.3591 14.0612 9.19908C14.0612 8.01908 13.1013 7.05908 11.9213 7.05908C10.7413 7.05908 9.78125 8.01908 9.78125 9.19908C9.80125 10.3491 10.7012 11.2891 11.9012 11.3291Z" fill="white"/>
<path d="M14.1902 13.4394C12.9802 12.6394 11.0201 12.6394 9.80014 13.4394C9.24014 13.8194 8.91016 14.3594 8.91016 14.9194C8.91016 15.4894 9.23014 16.0094 9.80014 16.3894C10.4101 16.7894 11.2001 16.9994 11.9901 16.9994C12.7801 16.9994 13.5801 16.7994 14.1801 16.3894C14.7401 16.0094 15.0702 15.4694 15.0702 14.9094C15.0802 14.3394 14.7602 13.8194 14.1902 13.4394Z" fill="white"/>
</svg>
