<svg width="25" height="25" viewBox="0 0 25 25" fill="none" xmlns="http://www.w3.org/2000/svg">
<path fill-rule="evenodd" clip-rule="evenodd" d="M12.1953 0.0288086C5.5679 0.0288086 0.195312 5.40139 0.195312 12.0288C0.195312 18.6562 5.5679 24.0288 12.1953 24.0288C18.8227 24.0288 24.1953 18.6562 24.1953 12.0288C24.1953 5.40139 18.8227 0.0288086 12.1953 0.0288086ZM12.3179 6.02881H12.3185C12.603 6.02881 13.1715 6.06866 13.7814 6.33545C14.1318 6.48892 14.4469 6.69654 14.7182 6.95267C15.0417 7.25832 15.305 7.63532 15.5012 8.07366C15.7874 8.71367 15.7192 9.79173 15.6644 10.658L15.6622 10.6946L15.6601 10.7274C15.6555 10.8012 15.6511 10.8726 15.647 10.9422C15.6842 10.9591 15.7416 10.9768 15.8235 10.981C15.9774 10.9737 16.1567 10.9226 16.3569 10.8292C16.4504 10.7857 16.5492 10.7766 16.6159 10.7766C16.7139 10.7766 16.8101 10.7949 16.8945 10.8297C17.1444 10.9188 17.3015 11.1009 17.3055 11.3058C17.3071 11.3904 17.2815 11.5198 17.15 11.6549C17.0399 11.7682 16.873 11.8679 16.6395 11.9599C16.5856 11.9811 16.5209 12.0016 16.4522 12.0232C16.215 12.0983 15.8565 12.2117 15.7632 12.4311C15.7157 12.5426 15.7359 12.6888 15.8234 12.8659C15.8258 12.8707 15.8282 12.8755 15.8302 12.8804C15.8621 12.9549 16.633 14.708 18.3441 14.9892C18.4954 15.014 18.6036 15.1486 18.5949 15.3009C18.5925 15.3459 18.5817 15.39 18.5633 15.4326C18.5018 15.5745 18.3602 15.6955 18.1303 15.8019C17.8487 15.9323 17.4277 16.0417 16.8784 16.1277C16.8508 16.1806 16.8212 16.3152 16.8026 16.4001L16.8023 16.4016C16.7809 16.4994 16.7592 16.596 16.7288 16.6988C16.683 16.8551 16.5632 16.9443 16.4001 16.9443H16.3926L16.3853 16.9442C16.3114 16.9442 16.215 16.9325 16.091 16.9081C15.901 16.8712 15.6882 16.837 15.4195 16.837C15.2634 16.837 15.1018 16.8508 14.9392 16.8777C14.6257 16.9297 14.3557 17.1198 14.0429 17.34L14.0427 17.3402L14.0419 17.3409L14.0416 17.3411C13.5843 17.6635 13.0662 18.0288 12.2742 18.0288C12.24 18.0288 12.2075 18.0278 12.1813 18.0266C12.16 18.0281 12.1383 18.0288 12.1167 18.0288C11.3248 18.0288 10.8065 17.6635 10.3486 17.3407C10.0357 17.1202 9.76535 16.9297 9.45171 16.8777C9.289 16.8507 9.12735 16.837 8.97138 16.837C8.69005 16.837 8.46464 16.881 8.29981 16.9133L8.29599 16.914C8.18506 16.9355 8.08911 16.954 8.00555 16.954C7.78253 16.954 7.69572 16.818 7.66225 16.7042C7.63124 16.5992 7.60947 16.5003 7.58861 16.4041L7.58745 16.3988C7.56757 16.3085 7.53935 16.1804 7.51215 16.1288C6.96325 16.043 6.5421 15.9333 6.26051 15.8029C6.03006 15.696 5.88832 15.5749 5.82719 15.4323L5.82675 15.4316C5.80881 15.3891 5.79846 15.3453 5.79587 15.3013C5.78745 15.1486 5.89542 15.0143 6.04662 14.9896C6.43164 14.9263 6.79912 14.7832 7.13873 14.5644C7.41698 14.3851 7.6788 14.1543 7.91651 13.878C8.33484 13.3922 8.53878 12.9316 8.56064 12.8807C8.56246 12.8764 8.56442 12.8723 8.5664 12.8681L8.56731 12.8662C8.65479 12.6892 8.67519 12.5427 8.62778 12.4314C8.53434 12.2121 8.17628 12.0987 7.93926 12.0235L7.93851 12.0233L7.93762 12.023C7.86965 12.0015 7.80548 11.9812 7.75138 11.96C7.54433 11.8784 7.38391 11.7866 7.2747 11.6872C7.07617 11.5064 7.07534 11.3282 7.09253 11.2381C7.1186 11.1018 7.2146 10.9788 7.36317 10.8918C7.48127 10.8226 7.6174 10.7847 7.74654 10.7847C7.82692 10.7847 7.89976 10.7997 7.96358 10.8293C8.18049 10.9307 8.37236 10.9821 8.53371 10.9821C8.63399 10.9821 8.70202 10.9618 8.74398 10.9426C8.73893 10.8576 8.73345 10.7705 8.72814 10.6863L8.7264 10.6587L8.7262 10.6574L8.72618 10.6571C8.67165 9.79143 8.6038 8.71439 8.88981 8.07492C9.08512 7.63813 9.34758 7.26209 9.66974 6.9571C9.93996 6.70113 10.254 6.49349 10.6032 6.33992C11.2139 6.07115 11.7824 6.03112 12.0666 6.03112L12.2866 6.02894L12.3179 6.02881Z" fill="white"/>
</svg>
