<svg width="24" height="25" viewBox="0 0 24 25" fill="none" xmlns="http://www.w3.org/2000/svg">
<path opacity="0.4" d="M21.5 8.39881V15.8488C21.5 15.9988 21.45 16.1488 21.32 16.2788C19.87 17.7388 17.29 20.3388 15.81 21.8288C15.68 21.9688 15.51 22.0288 15.34 22.0288H7.37C4.68 22.0288 2.5 19.8488 2.5 17.1588V8.39881C2.5 5.70881 4.68 3.52881 7.37 3.52881H16.63C19.32 3.52881 21.5 5.70881 21.5 8.39881Z" fill="white"/>
<path d="M8.28906 6.31881C7.86906 6.31881 7.53906 5.97881 7.53906 5.56881V2.77881C7.53906 2.36881 7.86906 2.02881 8.28906 2.02881C8.70906 2.02881 9.03906 2.36881 9.03906 2.77881V5.55881C9.03906 5.97881 8.70906 6.31881 8.28906 6.31881Z" fill="white"/>
<path d="M15.7109 6.31881C15.2909 6.31881 14.9609 5.97881 14.9609 5.56881V2.77881C14.9609 2.35881 15.3009 2.02881 15.7109 2.02881C16.1309 2.02881 16.4609 2.36881 16.4609 2.77881V5.55881C16.4609 5.97881 16.1309 6.31881 15.7109 6.31881Z" fill="white"/>
<path d="M14.7794 12.7388H7.35938C6.93938 12.7388 6.60938 12.3988 6.60938 11.9888C6.60938 11.5788 6.94938 11.2388 7.35938 11.2388H14.7794C15.1994 11.2388 15.5294 11.5788 15.5294 11.9888C15.5294 12.3988 15.1994 12.7388 14.7794 12.7388Z" fill="white"/>
<path d="M11.9994 16.4487H7.35938C6.93938 16.4487 6.60938 16.1087 6.60938 15.6987C6.60938 15.2787 6.94938 14.9487 7.35938 14.9487H11.9994C12.4194 14.9487 12.7494 15.2887 12.7494 15.6987C12.7494 16.1087 12.4194 16.4487 11.9994 16.4487Z" fill="white"/>
<path d="M21.5014 15.849C21.5014 15.999 21.4514 16.149 21.3214 16.279C19.8714 17.739 17.2914 20.339 15.8114 21.829C15.6814 21.969 15.5114 22.029 15.3414 22.029C15.0114 22.029 14.6914 21.769 14.6914 21.389V17.889C14.6914 16.429 15.9314 15.219 17.4514 15.219C18.4014 15.209 19.7214 15.209 20.8514 15.209C21.2414 15.209 21.5014 15.519 21.5014 15.849Z" fill="white"/>
</svg>
