<svg width="24" height="25" viewBox="0 0 24 25" fill="none" xmlns="http://www.w3.org/2000/svg">
<path opacity="0.4" d="M10.7489 2.47814C11.4389 1.88814 12.5689 1.88814 13.2689 2.47814L14.8489 3.83814C15.1489 4.09814 15.7089 4.30814 16.1089 4.30814H17.8089C18.8689 4.30814 19.7389 5.17814 19.7389 6.23814V7.93814C19.7389 8.32814 19.9489 8.89814 20.2089 9.19814L21.5689 10.7781C22.1589 11.4681 22.1589 12.5981 21.5689 13.2981L20.2089 14.8781C19.9489 15.1781 19.7389 15.7381 19.7389 16.1381V17.8381C19.7389 18.8981 18.8689 19.7681 17.8089 19.7681H16.1089C15.7189 19.7681 15.1489 19.9781 14.8489 20.2381L13.2689 21.5981C12.5789 22.1881 11.4489 22.1881 10.7489 21.5981L9.16891 20.2381C8.86891 19.9781 8.30891 19.7681 7.90891 19.7681H6.17891C5.11891 19.7681 4.24891 18.8981 4.24891 17.8381V16.1281C4.24891 15.7381 4.03891 15.1781 3.78891 14.8781L2.43891 13.2881C1.85891 12.5981 1.85891 11.4781 2.43891 10.7881L3.78891 9.19814C4.03891 8.89814 4.24891 8.33814 4.24891 7.94814V6.22814C4.24891 5.16814 5.11891 4.29814 6.17891 4.29814H7.90891C8.29891 4.29814 8.86891 4.08814 9.16891 3.82814L10.7489 2.47814Z" fill="white"/>
<path d="M10.7886 15.1981C10.5886 15.1981 10.3986 15.1181 10.2586 14.9781L7.83859 12.5581C7.54859 12.2681 7.54859 11.7881 7.83859 11.4981C8.12859 11.2081 8.60859 11.2081 8.89859 11.4981L10.7886 13.3881L15.0886 9.08811C15.3786 8.79811 15.8586 8.79811 16.1486 9.08811C16.4386 9.37811 16.4386 9.8581 16.1486 10.1481L11.3186 14.9781C11.1786 15.1181 10.9886 15.1981 10.7886 15.1981Z" fill="white"/>
</svg>
