<svg width="24" height="24" viewBox="0 0 24 24" fill="none" xmlns="http://www.w3.org/2000/svg">
<path d="M7.86786 13.0711L7.8674 13.0718C7.08893 14.2309 7.89877 15.81 9.32 15.81H14.68C16.0845 15.81 16.9148 14.2365 16.1326 13.0718L16.1321 13.0711C15.4019 11.9865 14.1179 11.2596 12.6635 11.0887C14.0475 10.7862 15.08 9.55635 15.08 8.08C15.08 6.37579 13.7042 5 12 5C10.2958 5 8.92 6.37579 8.92 8.08C8.92 9.54654 9.95185 10.7846 11.3378 11.0886C9.88279 11.2592 8.59832 11.9862 7.86786 13.0711ZM6 2.75H18C19.2523 2.75 20.25 3.75075 20.25 4.97V15.88C20.25 17.0993 19.2523 18.1 18 18.1H17.25C16.2673 18.1 15.3056 18.4846 14.6013 19.1881C14.6007 19.1886 14.6002 19.1891 14.5997 19.1897L12.8931 20.8763C12.4052 21.3579 11.6048 21.3579 11.1169 20.8763L9.41033 19.1897C9.4098 19.1891 9.40928 19.1886 9.40875 19.1881C8.70533 18.4855 7.75399 18.1 6.76 18.1H6C4.74765 18.1 3.75 17.0993 3.75 15.88V4.97C3.75 3.75075 4.74765 2.75 6 2.75Z" fill="#3C8799" stroke="#3C8799" stroke-width="1.5"/>
</svg>
