<svg width="24" height="24" viewBox="0 0 24 24" fill="none" xmlns="http://www.w3.org/2000/svg">
<path d="M8 6.75C8 4.54421 9.79421 2.75 12 2.75C14.2053 2.75 15.9992 4.54343 16 6.74855C15.9908 8.91292 14.3051 10.6579 12.1563 10.74H12.1563H12.1562H12.1562H12.1562H12.1561H12.1561H12.156H12.156H12.156H12.1559H12.1559H12.1559H12.1558H12.1558H12.1558H12.1557H12.1557H12.1556H12.1556H12.1556H12.1555H12.1555H12.1555H12.1554H12.1554H12.1553H12.1553H12.1553H12.1552H12.1552H12.1551H12.1551H12.1551H12.155H12.155H12.1549H12.1549H12.1549H12.1548H12.1548H12.1547H12.1547H12.1547H12.1546H12.1546H12.1545H12.1545H12.1545H12.1544H12.1544H12.1543H12.1543H12.1542H12.1542H12.1542H12.1541H12.1541H12.154H12.154H12.1539H12.1539H12.1539H12.1538H12.1538H12.1537H12.1537H12.1536H12.1536H12.1535H12.1535H12.1535H12.1534H12.1534H12.1533H12.1533H12.1532H12.1532H12.1531H12.1531H12.153H12.153H12.1529H12.1529H12.1529H12.1528H12.1528H12.1527H12.1527H12.1526H12.1526H12.1525H12.1525H12.1524H12.1524H12.1523H12.1523H12.1522H12.1522H12.1521H12.1521H12.152H12.152H12.1519H12.1519H12.1518H12.1518H12.1517H12.1517H12.1516H12.1516H12.1515H12.1514H12.1514H12.1513H12.1513H12.1512H12.1512H12.1511H12.1511H12.151H12.151H12.1509H12.1509H12.1508H12.1507H12.1507H12.1506H12.1506H12.1505H12.1505H12.1504H12.1503H12.1503H12.1502H12.1502H12.1501H12.1501H12.15H12.1499H12.1498H12.1496H12.1495H12.1494H12.1493H12.1492H12.1491H12.149H12.1488H12.1487H12.1486H12.1485H12.1484H12.1483H12.1482H12.148H12.1479H12.1478H12.1477H12.1476H12.1475H12.1474C12.0476 10.7297 11.9478 10.7308 11.8569 10.7385C9.65976 10.6383 8 8.89467 8 6.75Z" fill="#3C8799" stroke="#3C8799" stroke-width="1.5"/>
<path d="M7.33902 19.9673L7.33696 19.966C6.22854 19.227 5.71094 18.2976 5.71094 17.38C5.71094 16.4618 6.22911 15.5228 7.34651 14.7743C8.60386 13.9427 10.2912 13.505 12.0134 13.505C13.7367 13.505 15.4185 13.9431 16.6649 14.774C17.7679 15.5093 18.2823 16.4383 18.2909 17.363C18.2898 18.2903 17.7713 19.2193 16.6621 19.9678C15.4109 20.8077 13.725 21.25 12.0009 21.25C10.2765 21.25 8.59034 20.8075 7.33902 19.9673Z" fill="#3C8799" stroke="#3C8799" stroke-width="1.5"/>
</svg>
