<svg width="49" height="48" viewBox="0 0 49 48" fill="none" xmlns="http://www.w3.org/2000/svg">
<path opacity="0.4" d="M41.9062 16.9C39.8062 7.66 31.7462 3.5 24.6662 3.5C24.6662 3.5 24.6662 3.5 24.6462 3.5C17.5862 3.5 9.50621 7.64 7.40621 16.88C5.06621 27.2 11.3862 35.94 17.1062 41.44C19.2262 43.48 21.9462 44.5 24.6662 44.5C27.3862 44.5 30.1062 43.48 32.2062 41.44C37.9262 35.94 44.2462 27.22 41.9062 16.9Z" fill="#3C8799"/>
<path d="M24.6652 26.92C28.1446 26.92 30.9652 24.0994 30.9652 20.62C30.9652 17.1406 28.1446 14.32 24.6652 14.32C21.1858 14.32 18.3652 17.1406 18.3652 20.62C18.3652 24.0994 21.1858 26.92 24.6652 26.92Z" fill="#3C8799"/>
</svg>
