<svg width="20" height="21" viewBox="0 0 20 21" fill="none" xmlns="http://www.w3.org/2000/svg">
<path d="M7.08464 15.862H6.66797C3.33464 15.862 1.66797 15.0286 1.66797 10.862V6.69531C1.66797 3.36198 3.33464 1.69531 6.66797 1.69531H13.3346C16.668 1.69531 18.3346 3.36198 18.3346 6.69531V10.862C18.3346 14.1953 16.668 15.862 13.3346 15.862H12.918C12.6596 15.862 12.4096 15.987 12.2513 16.1953L11.0013 17.862C10.4513 18.5953 9.5513 18.5953 9.0013 17.862L7.7513 16.1953C7.61797 16.012 7.30964 15.862 7.08464 15.862Z" stroke="#C1C2C3" stroke-width="1.25" stroke-miterlimit="10" stroke-linecap="round" stroke-linejoin="round"/>
<path d="M5.83203 6.69531H14.1654" stroke="#C1C2C3" stroke-width="1.25" stroke-linecap="round" stroke-linejoin="round"/>
<path d="M5.83203 10.8623H10.832" stroke="#C1C2C3" stroke-width="1.25" stroke-linecap="round" stroke-linejoin="round"/>
</svg>
