<svg width="48" height="48" viewBox="0 0 48 48" fill="none" xmlns="http://www.w3.org/2000/svg">
<path opacity="0.4" d="M44 31.8801C44 37.4601 39.52 41.9801 33.94 42.0001H33.92H14.1C8.54 42.0001 4 37.5001 4 31.9201V31.9001C4 31.9001 4.012 23.0481 4.028 18.5961C4.03 17.7601 4.99 17.2921 5.644 17.8121C10.396 21.5821 18.894 28.4561 19 28.5461C20.42 29.6841 22.22 30.3261 24.06 30.3261C25.9 30.3261 27.7 29.6841 29.12 28.5241C29.226 28.4541 37.534 21.7861 42.358 17.9541C43.014 17.4321 43.978 17.9001 43.98 18.7341C44 23.1521 44 31.8801 44 31.8801Z" fill="#3C8799"/>
<path d="M42.9498 11.3471C41.2178 8.08315 37.8098 5.99915 34.0578 5.99915H14.0978C10.3458 5.99915 6.93781 8.08315 5.20581 11.3471C4.81781 12.0771 5.00181 12.9871 5.64781 13.5031L20.4978 25.3811C21.5378 26.2211 22.7978 26.6391 24.0578 26.6391C24.0658 26.6391 24.0718 26.6391 24.0778 26.6391C24.0838 26.6391 24.0918 26.6391 24.0978 26.6391C25.3578 26.6391 26.6178 26.2211 27.6578 25.3811L42.5078 13.5031C43.1538 12.9871 43.3378 12.0771 42.9498 11.3471Z" fill="#3C8799"/>
</svg>
