<svg width="20" height="21" viewBox="0 0 20 21" fill="none" xmlns="http://www.w3.org/2000/svg">
<path d="M10.1302 9.08698C10.0469 9.07865 9.94687 9.07865 9.85521 9.08698C7.87187 9.02031 6.29688 7.39531 6.29688 5.39531C6.29687 3.35365 7.94687 1.69531 9.99687 1.69531C12.0385 1.69531 13.6969 3.35365 13.6969 5.39531C13.6885 7.39531 12.1135 9.02031 10.1302 9.08698Z" stroke="#C1C2C3" stroke-width="1.25" stroke-linecap="round" stroke-linejoin="round"/>
<path d="M5.96563 12.1623C3.94896 13.5123 3.94896 15.7123 5.96563 17.054C8.25729 18.5873 12.0156 18.5873 14.3073 17.054C16.324 15.704 16.324 13.504 14.3073 12.1623C12.024 10.6373 8.26562 10.6373 5.96563 12.1623Z" stroke="#C1C2C3" stroke-width="1.25" stroke-linecap="round" stroke-linejoin="round"/>
</svg>
